<?xml version="1.0" encoding="UTF-8"?>
<svg id="Layer_1" data-name="Layer 1" xmlns="http://www.w3.org/2000/svg" viewBox="0 0 405.02 163.67">
  <defs>
    <style>
      .cls-1 {
        fill: #564592;
      }

      .cls-2 {
        fill: #f896d8;
      }

      .cls-3 {
        fill: #edf67d;
      }
    </style>
  </defs>
  <g>
    <path class="cls-2" d="m155.47,26.63c2.62.7,5.1,1.72,7.45,3.06l-3.38,23.62c-.1.96-.14,1.61-.14,1.94,0,.67.11,1.2.32,1.58.22.38.61.7,1.19.94l-4.03,8.78c-2.21-.19-4.18-.77-5.9-1.73-1.73-.96-2.93-2.3-3.6-4.03-1.34,1.97-2.84,3.47-4.5,4.5-1.66,1.03-3.61,1.55-5.87,1.55-3.6,0-6.35-1.3-8.24-3.89-1.9-2.59-2.84-6.17-2.84-10.73s.73-8.86,2.2-12.89c1.46-4.03,3.82-7.33,7.06-9.9,3.24-2.57,7.4-3.85,12.49-3.85,2.59,0,5.2.35,7.81,1.04Zm-14.15,13.68c-1.2,3.53-1.8,7.57-1.8,12.13,0,1.73.2,2.92.61,3.56.41.65.97.97,1.69.97,1.49,0,2.98-1.3,4.46-3.89l2.59-17.78c-.72-.19-1.46-.29-2.23-.29-2.35,0-4.13,1.76-5.33,5.29Z"/>
    <path class="cls-2" d="m203.75,11.83l-7.49,53.57h-11.88l.07-4.46c-1.34,1.87-2.82,3.32-4.43,4.36-1.61,1.03-3.52,1.55-5.72,1.55-3.5,0-6.17-1.26-7.99-3.78-1.82-2.52-2.74-6.13-2.74-10.84,0-4.37.65-8.59,1.94-12.67,1.3-4.08,3.25-7.43,5.87-10.04,2.62-2.62,5.75-3.92,9.4-3.92,3.02,0,5.42,1.03,7.2,3.1l2.52-18.22,13.25,1.37Zm-23.62,26.21c-.96,1.82-1.67,4.03-2.12,6.62-.46,2.59-.68,5.06-.68,7.42,0,1.92.2,3.22.61,3.89.41.67.97,1.01,1.69,1.01,1.44,0,3.12-1.54,5.04-4.61l2.16-15.41c-.86-1.1-1.87-1.66-3.02-1.66-1.49,0-2.71.91-3.67,2.74Z"/>
    <path class="cls-2" d="m219.87,26.95l-5.33,38.45h-13.39l5.33-38.45h13.39Zm-10.51-7.96c-1.2-1.18-1.8-2.72-1.8-4.64,0-2.4.82-4.39,2.45-5.98,1.63-1.58,3.62-2.38,5.98-2.38,2.06,0,3.7.59,4.9,1.76,1.2,1.18,1.8,2.73,1.8,4.64,0,2.4-.8,4.39-2.41,5.98-1.61,1.58-3.61,2.38-6.01,2.38-2.06,0-3.7-.59-4.9-1.76Z"/>
    <path class="cls-2" d="m234.06,53.95c-.05.19-.07.46-.07.79,0,.86.41,1.3,1.22,1.3.38,0,.79-.07,1.22-.22l1.01,9.5c-1.01.43-2.2.78-3.56,1.04-1.37.26-2.73.4-4.07.4-3.07,0-5.42-.8-7.06-2.41-1.63-1.61-2.45-3.88-2.45-6.8,0-1.1.05-1.94.14-2.52l6.05-43.2,13.46-1.37-5.9,43.49Z"/>
    <path class="cls-2" d="m255.19,11.26c1.03,1.01,1.55,2.35,1.55,4.03,0,1.2-.23,2.36-.68,3.49-.46,1.13-1.28,2.73-2.48,4.79l-5.62,9.72h-6.19l4.32-11.81c-1.49-1.1-2.23-2.66-2.23-4.68s.7-3.64,2.09-5c1.39-1.37,3.1-2.05,5.11-2.05,1.73,0,3.11.5,4.14,1.51Z"/>
    <path class="cls-2" d="m280.03,26.92c2.38.89,4.4,2.1,6.08,3.64l-5.69,7.13c-2.5-1.73-4.97-2.59-7.42-2.59-1.1,0-1.96.2-2.56.61-.6.41-.9.95-.9,1.62,0,.77.4,1.42,1.19,1.94.79.53,2.53,1.34,5.22,2.45,2.74,1.1,4.8,2.52,6.19,4.25,1.39,1.73,2.09,3.96,2.09,6.7s-.66,5.04-1.98,7.2c-1.32,2.16-3.27,3.86-5.83,5.11-2.57,1.25-5.63,1.87-9.18,1.87-3.22,0-6.14-.56-8.78-1.69-2.64-1.13-4.87-2.68-6.7-4.64l6.77-6.84c2.69,2.45,5.5,3.67,8.42,3.67,1.2,0,2.16-.24,2.88-.72.72-.48,1.08-1.15,1.08-2.02,0-.91-.41-1.67-1.22-2.27-.82-.6-2.45-1.4-4.9-2.41-2.88-1.2-5-2.63-6.37-4.28-1.37-1.66-2.05-3.85-2.05-6.59,0-2.54.67-4.85,2.02-6.91,1.34-2.06,3.23-3.67,5.65-4.82,2.42-1.15,5.24-1.73,8.46-1.73,2.64,0,5.15.44,7.52,1.33Z"/>
    <path class="cls-2" d="m34.26,108.92c2.38.89,4.4,2.1,6.08,3.64l-5.69,7.13c-2.5-1.73-4.97-2.59-7.42-2.59-1.1,0-1.96.2-2.56.61-.6.41-.9.95-.9,1.62,0,.77.4,1.42,1.19,1.94s2.53,1.34,5.22,2.45c2.74,1.11,4.8,2.52,6.19,4.25,1.39,1.73,2.09,3.96,2.09,6.7s-.66,5.04-1.98,7.2c-1.32,2.16-3.27,3.86-5.83,5.11-2.57,1.25-5.63,1.87-9.18,1.87-3.22,0-6.14-.57-8.78-1.69-2.64-1.13-4.87-2.68-6.7-4.64l6.77-6.84c2.69,2.45,5.5,3.67,8.42,3.67,1.2,0,2.16-.24,2.88-.72.72-.48,1.08-1.15,1.08-2.02,0-.91-.41-1.67-1.22-2.27-.82-.6-2.45-1.4-4.9-2.41-2.88-1.2-5-2.63-6.37-4.28-1.37-1.66-2.05-3.85-2.05-6.59,0-2.54.67-4.85,2.02-6.91,1.34-2.06,3.23-3.67,5.65-4.82,2.42-1.15,5.24-1.73,8.46-1.73,2.64,0,5.15.44,7.52,1.33Z"/>
    <path class="cls-2" d="m90.85,109.92c1.37,1.56,2.05,3.73,2.05,6.52,0,.82-.07,1.7-.22,2.66l-3.96,28.3h-13.39l3.53-25.27.14-1.44c0-1.06-.29-1.58-.86-1.58s-1.19.54-1.84,1.62-1.43,2.84-2.34,5.29l-3.02,21.38h-13.39l3.53-25.27.14-1.44c0-1.06-.31-1.58-.94-1.58-1.1,0-2.47,2.45-4.1,7.34l-2.95,20.95h-13.39l5.33-38.45h11.66l.07,5.54c1.34-2.16,2.9-3.85,4.68-5.08,1.78-1.22,3.7-1.84,5.76-1.84s3.76.55,5.08,1.66c1.32,1.1,2.17,2.69,2.56,4.75,1.3-1.97,2.82-3.53,4.57-4.68,1.75-1.15,3.61-1.73,5.58-1.73,2.45,0,4.36.78,5.72,2.34Z"/>
    <path class="cls-2" d="m98.56,144.74c-2.71-2.74-4.07-6.7-4.07-11.88,0-4.46.73-8.62,2.2-12.46,1.46-3.84,3.76-6.94,6.88-9.29,3.12-2.35,7.01-3.53,11.66-3.53s8.64,1.38,11.38,4.14c2.74,2.76,4.1,6.71,4.1,11.84-.05,4.51-.8,8.68-2.27,12.49-1.46,3.82-3.76,6.9-6.88,9.25-3.12,2.35-7.01,3.53-11.66,3.53s-8.63-1.37-11.34-4.1Zm5.26-44.6c-1.03-1.03-1.55-2.39-1.55-4.07,0-2.06.71-3.79,2.12-5.18,1.42-1.39,3.13-2.09,5.15-2.09,1.82,0,3.25.52,4.28,1.55,1.03,1.03,1.55,2.39,1.55,4.07,0,2.06-.71,3.79-2.12,5.18-1.42,1.39-3.16,2.09-5.22,2.09-1.78,0-3.18-.52-4.21-1.55Zm11.88,33.26c.94-3.72,1.4-7.62,1.4-11.7,0-1.54-.23-2.64-.68-3.31-.46-.67-1.19-1.01-2.2-1.01-2.21,0-3.79,1.81-4.75,5.44-.96,3.62-1.44,7.45-1.44,11.48,0,1.68.23,2.88.68,3.6.46.72,1.19,1.08,2.2,1.08,2.26,0,3.85-1.86,4.79-5.58Zm4.18-33.26c-1.03-1.03-1.55-2.39-1.55-4.07,0-2.06.7-3.79,2.09-5.18s3.12-2.09,5.18-2.09c1.78,0,3.18.52,4.21,1.55,1.03,1.03,1.55,2.39,1.55,4.07,0,2.06-.7,3.79-2.09,5.18-1.39,1.39-3.12,2.09-5.18,2.09-1.78,0-3.18-.52-4.21-1.55Z"/>
    <path class="cls-2" d="m161.52,108.38l-3.96,13.18c-1.1-.34-2.09-.5-2.95-.5-1.78,0-3.24.86-4.39,2.59-1.15,1.73-2.19,4.15-3.1,7.27l-2.3,16.49h-13.39l5.33-38.45h11.52v6.55c1.2-2.45,2.64-4.36,4.32-5.72,1.68-1.37,3.53-2.05,5.54-2.05,1.2,0,2.33.22,3.38.65Z"/>
    <path class="cls-2" d="m186.57,108.63c2.64.7,5.14,1.72,7.49,3.06l-4.61,32.54c-.96,6.72-3,11.64-6.12,14.76-3.12,3.12-7.75,4.68-13.9,4.68-2.45,0-4.88-.37-7.31-1.12-2.42-.75-4.67-1.79-6.73-3.13l4.54-8.64c3.21,1.87,6.26,2.81,9.14,2.81,1.92,0,3.48-.48,4.68-1.44,1.2-.96,1.99-2.76,2.38-5.4l.58-3.96c-2.4,3.12-5.33,4.68-8.78,4.68s-6.28-1.3-8.17-3.89c-1.9-2.59-2.84-6.09-2.84-10.51s.73-8.56,2.2-12.42c1.46-3.86,3.83-7.01,7.09-9.43,3.26-2.42,7.44-3.64,12.53-3.64,2.59,0,5.21.35,7.85,1.04Zm-14.26,13.21c-1.2,3.22-1.8,6.96-1.8,11.23,0,1.68.22,2.84.65,3.49.43.65,1.03.97,1.8.97,1.49,0,3.05-1.27,4.68-3.82l2.3-16.42c-.62-.19-1.34-.29-2.16-.29-2.45,0-4.27,1.61-5.47,4.82Z"/>
    <path class="cls-2" d="m224.12,108.63c2.62.7,5.1,1.72,7.45,3.06l-3.38,23.62c-.1.96-.14,1.61-.14,1.94,0,.67.11,1.2.32,1.58.22.38.61.7,1.19.94l-4.03,8.78c-2.21-.19-4.18-.77-5.9-1.73-1.73-.96-2.93-2.3-3.6-4.03-1.34,1.97-2.84,3.47-4.5,4.5-1.66,1.03-3.61,1.55-5.87,1.55-3.6,0-6.35-1.3-8.24-3.89-1.9-2.59-2.84-6.17-2.84-10.73s.73-8.86,2.2-12.89c1.46-4.03,3.82-7.33,7.06-9.9,3.24-2.57,7.4-3.85,12.49-3.85,2.59,0,5.2.35,7.81,1.04Zm-14.15,13.68c-1.2,3.53-1.8,7.57-1.8,12.13,0,1.73.2,2.92.61,3.56.41.65.97.97,1.69.97,1.49,0,2.98-1.3,4.46-3.89l2.59-17.78c-.72-.19-1.46-.29-2.23-.29-2.35,0-4.13,1.76-5.33,5.29Zm16.96-35.82c1.56,1.68,2.34,3.89,2.34,6.62,0,2.02-.47,3.9-1.4,5.65-.94,1.75-2.28,3.14-4.03,4.18-1.75,1.03-3.78,1.55-6.08,1.55-2.83,0-5.03-.84-6.59-2.52-1.56-1.68-2.34-3.89-2.34-6.62,0-1.97.48-3.83,1.44-5.58.96-1.75,2.32-3.16,4.07-4.21,1.75-1.06,3.76-1.58,6.01-1.58,2.83,0,5.03.84,6.59,2.52Zm-9.76,5.47c-.62.86-.94,1.87-.94,3.02,0,1.82.74,2.74,2.23,2.74,1.01,0,1.82-.43,2.45-1.3.62-.86.94-1.85.94-2.95,0-1.87-.72-2.81-2.16-2.81-1.06,0-1.9.43-2.52,1.3Z"/>
    <path class="cls-2" d="m257.39,108.92c2.38.89,4.4,2.1,6.08,3.64l-5.69,7.13c-2.5-1.73-4.97-2.59-7.42-2.59-1.1,0-1.96.2-2.56.61-.6.41-.9.95-.9,1.62,0,.77.4,1.42,1.19,1.94s2.53,1.34,5.22,2.45c2.74,1.11,4.8,2.52,6.19,4.25,1.39,1.73,2.09,3.96,2.09,6.7s-.66,5.04-1.98,7.2c-1.32,2.16-3.27,3.86-5.83,5.11-2.57,1.25-5.63,1.87-9.18,1.87-3.22,0-6.14-.57-8.78-1.69-2.64-1.13-4.87-2.68-6.7-4.64l6.77-6.84c2.69,2.45,5.5,3.67,8.42,3.67,1.2,0,2.16-.24,2.88-.72.72-.48,1.08-1.15,1.08-2.02,0-.91-.41-1.67-1.22-2.27-.82-.6-2.45-1.4-4.9-2.41-2.88-1.2-5-2.63-6.37-4.28-1.37-1.66-2.05-3.85-2.05-6.59,0-2.54.67-4.85,2.02-6.91,1.34-2.06,3.23-3.67,5.65-4.82,2.42-1.15,5.24-1.73,8.46-1.73,2.64,0,5.15.44,7.52,1.33Z"/>
    <path class="cls-2" d="m298.21,111.11c1.75,2.35,2.63,5.74,2.63,10.15,0,8.11-1.7,14.74-5.11,19.87-3.41,5.14-9.1,7.7-17.06,7.7-5.09,0-10.25-1.15-15.48-3.46l7.2-51.55,13.54-1.44-2.74,19.37c1.15-1.3,2.56-2.32,4.21-3.06,1.66-.74,3.37-1.12,5.15-1.12,3.36,0,5.92,1.18,7.67,3.53Zm-18.18,9.65l-2.45,17.71c.86.38,1.8.58,2.81.58,2.26,0,3.95-1.78,5.08-5.33,1.13-3.55,1.69-7.42,1.69-11.59,0-1.87-.22-3.13-.65-3.78-.43-.65-1.06-.97-1.87-.97-1.58,0-3.12,1.13-4.61,3.38Z"/>
    <path class="cls-2" d="m306.63,144.74c-2.71-2.74-4.07-6.7-4.07-11.88,0-4.46.73-8.62,2.2-12.46,1.46-3.84,3.76-6.94,6.88-9.29,3.12-2.35,7.01-3.53,11.66-3.53s8.64,1.38,11.38,4.14c2.74,2.76,4.1,6.71,4.1,11.84-.05,4.51-.8,8.68-2.27,12.49-1.46,3.82-3.76,6.9-6.88,9.25-3.12,2.35-7.01,3.53-11.66,3.53s-8.63-1.37-11.34-4.1Zm17.14-11.34c.94-3.72,1.4-7.62,1.4-11.7,0-1.54-.23-2.64-.68-3.31-.46-.67-1.19-1.01-2.2-1.01-2.21,0-3.79,1.81-4.75,5.44-.96,3.62-1.44,7.45-1.44,11.48,0,1.68.23,2.88.68,3.6.46.72,1.19,1.08,2.2,1.08,2.26,0,3.85-1.86,4.79-5.58Z"/>
    <path class="cls-2" d="m369.6,108.38l-3.96,13.18c-1.1-.34-2.09-.5-2.95-.5-1.78,0-3.24.86-4.39,2.59-1.15,1.73-2.19,4.15-3.1,7.27l-2.3,16.49h-13.39l5.33-38.45h11.52v6.55c1.2-2.45,2.64-4.36,4.32-5.72,1.68-1.37,3.53-2.05,5.54-2.05,1.2,0,2.33.22,3.38.65Z"/>
    <path class="cls-2" d="m405.02,93.83l-7.49,53.57h-11.88l.07-4.46c-1.34,1.87-2.82,3.32-4.43,4.36-1.61,1.03-3.52,1.55-5.72,1.55-3.5,0-6.17-1.26-7.99-3.78-1.82-2.52-2.74-6.13-2.74-10.84,0-4.37.65-8.59,1.94-12.67s3.25-7.43,5.87-10.04c2.62-2.62,5.75-3.92,9.4-3.92,3.02,0,5.42,1.03,7.2,3.1l2.52-18.22,13.25,1.37Zm-23.62,26.21c-.96,1.83-1.67,4.03-2.12,6.62-.46,2.59-.68,5.07-.68,7.42,0,1.92.2,3.22.61,3.89.41.67.97,1.01,1.69,1.01,1.44,0,3.12-1.54,5.04-4.61l2.16-15.41c-.86-1.1-1.87-1.66-3.02-1.66-1.49,0-2.71.91-3.67,2.74Z"/>
  </g>
  <g>
    <path class="cls-1" d="m152.47,23.63c2.62.7,5.1,1.72,7.45,3.06l-3.38,23.62c-.1.96-.14,1.61-.14,1.94,0,.67.11,1.2.32,1.58.22.38.61.7,1.19.94l-4.03,8.78c-2.21-.19-4.18-.77-5.9-1.73-1.73-.96-2.93-2.3-3.6-4.03-1.34,1.97-2.84,3.47-4.5,4.5-1.66,1.03-3.61,1.55-5.87,1.55-3.6,0-6.35-1.3-8.24-3.89-1.9-2.59-2.84-6.17-2.84-10.73s.73-8.86,2.2-12.89c1.46-4.03,3.82-7.33,7.06-9.9,3.24-2.57,7.4-3.85,12.49-3.85,2.59,0,5.2.35,7.81,1.04Zm-14.15,13.68c-1.2,3.53-1.8,7.57-1.8,12.13,0,1.73.2,2.92.61,3.56.41.65.97.97,1.69.97,1.49,0,2.98-1.3,4.46-3.89l2.59-17.78c-.72-.19-1.46-.29-2.23-.29-2.35,0-4.13,1.76-5.33,5.29Z"/>
    <path class="cls-1" d="m200.75,8.83l-7.49,53.57h-11.88l.07-4.46c-1.34,1.87-2.82,3.32-4.43,4.36-1.61,1.03-3.52,1.55-5.72,1.55-3.5,0-6.17-1.26-7.99-3.78-1.82-2.52-2.74-6.13-2.74-10.84,0-4.37.65-8.59,1.94-12.67,1.3-4.08,3.25-7.43,5.87-10.04,2.62-2.62,5.75-3.92,9.4-3.92,3.02,0,5.42,1.03,7.2,3.1l2.52-18.22,13.25,1.37Zm-23.62,26.21c-.96,1.82-1.67,4.03-2.12,6.62-.46,2.59-.68,5.06-.68,7.42,0,1.92.2,3.22.61,3.89.41.67.97,1.01,1.69,1.01,1.44,0,3.12-1.54,5.04-4.61l2.16-15.41c-.86-1.1-1.87-1.66-3.02-1.66-1.49,0-2.71.91-3.67,2.74Z"/>
    <path class="cls-1" d="m216.87,23.95l-5.33,38.45h-13.39l5.33-38.45h13.39Zm-10.51-7.96c-1.2-1.18-1.8-2.72-1.8-4.64,0-2.4.82-4.39,2.45-5.98,1.63-1.58,3.62-2.38,5.98-2.38,2.06,0,3.7.59,4.9,1.76,1.2,1.18,1.8,2.73,1.8,4.64,0,2.4-.8,4.39-2.41,5.98-1.61,1.58-3.61,2.38-6.01,2.38-2.06,0-3.7-.59-4.9-1.76Z"/>
    <path class="cls-1" d="m231.06,50.95c-.05.19-.07.46-.07.79,0,.86.41,1.3,1.22,1.3.38,0,.79-.07,1.22-.22l1.01,9.5c-1.01.43-2.2.78-3.56,1.04-1.37.26-2.73.4-4.07.4-3.07,0-5.42-.8-7.06-2.41-1.63-1.61-2.45-3.88-2.45-6.8,0-1.1.05-1.94.14-2.52l6.05-43.2,13.46-1.37-5.9,43.49Z"/>
    <path class="cls-1" d="m252.19,8.26c1.03,1.01,1.55,2.35,1.55,4.03,0,1.2-.23,2.36-.68,3.49-.46,1.13-1.28,2.73-2.48,4.79l-5.62,9.72h-6.19l4.32-11.81c-1.49-1.1-2.23-2.66-2.23-4.68s.7-3.64,2.09-5c1.39-1.37,3.1-2.05,5.11-2.05,1.73,0,3.11.5,4.14,1.51Z"/>
    <path class="cls-1" d="m277.03,23.92c2.38.89,4.4,2.1,6.08,3.64l-5.69,7.13c-2.5-1.73-4.97-2.59-7.42-2.59-1.1,0-1.96.2-2.56.61-.6.41-.9.95-.9,1.62,0,.77.4,1.42,1.19,1.94.79.53,2.53,1.34,5.22,2.45,2.74,1.1,4.8,2.52,6.19,4.25,1.39,1.73,2.09,3.96,2.09,6.7s-.66,5.04-1.98,7.2c-1.32,2.16-3.27,3.86-5.83,5.11-2.57,1.25-5.63,1.87-9.18,1.87-3.22,0-6.14-.56-8.78-1.69-2.64-1.13-4.87-2.68-6.7-4.64l6.77-6.84c2.69,2.45,5.5,3.67,8.42,3.67,1.2,0,2.16-.24,2.88-.72.72-.48,1.08-1.15,1.08-2.02,0-.91-.41-1.67-1.22-2.27-.82-.6-2.45-1.4-4.9-2.41-2.88-1.2-5-2.63-6.37-4.28-1.37-1.66-2.05-3.85-2.05-6.59,0-2.54.67-4.85,2.02-6.91,1.34-2.06,3.23-3.67,5.65-4.82,2.42-1.15,5.24-1.73,8.46-1.73,2.64,0,5.15.44,7.52,1.33Z"/>
    <path class="cls-1" d="m31.26,105.92c2.38.89,4.4,2.1,6.08,3.64l-5.69,7.13c-2.5-1.73-4.97-2.59-7.42-2.59-1.1,0-1.96.2-2.56.61-.6.41-.9.95-.9,1.62,0,.77.4,1.42,1.19,1.94s2.53,1.34,5.22,2.45c2.74,1.11,4.8,2.52,6.19,4.25,1.39,1.73,2.09,3.96,2.09,6.7s-.66,5.04-1.98,7.2c-1.32,2.16-3.27,3.86-5.83,5.11-2.57,1.25-5.63,1.87-9.18,1.87-3.22,0-6.14-.57-8.78-1.69-2.64-1.13-4.87-2.68-6.7-4.64l6.77-6.84c2.69,2.45,5.5,3.67,8.42,3.67,1.2,0,2.16-.24,2.88-.72.72-.48,1.08-1.15,1.08-2.02,0-.91-.41-1.67-1.22-2.27-.82-.6-2.45-1.4-4.9-2.41-2.88-1.2-5-2.63-6.37-4.28-1.37-1.66-2.05-3.85-2.05-6.59,0-2.54.67-4.85,2.02-6.91,1.34-2.06,3.23-3.67,5.65-4.82,2.42-1.15,5.24-1.73,8.46-1.73,2.64,0,5.15.44,7.52,1.33Z"/>
    <path class="cls-1" d="m87.85,106.92c1.37,1.56,2.05,3.73,2.05,6.52,0,.82-.07,1.7-.22,2.66l-3.96,28.3h-13.39l3.53-25.27.14-1.44c0-1.06-.29-1.58-.86-1.58s-1.19.54-1.84,1.62-1.43,2.84-2.34,5.29l-3.02,21.38h-13.39l3.53-25.27.14-1.44c0-1.06-.31-1.58-.94-1.58-1.1,0-2.47,2.45-4.1,7.34l-2.95,20.95h-13.39l5.33-38.45h11.66l.07,5.54c1.34-2.16,2.9-3.85,4.68-5.08,1.78-1.22,3.7-1.84,5.76-1.84s3.76.55,5.08,1.66c1.32,1.1,2.17,2.69,2.56,4.75,1.3-1.97,2.82-3.53,4.57-4.68,1.75-1.15,3.61-1.73,5.58-1.73,2.45,0,4.36.78,5.72,2.34Z"/>
    <path class="cls-1" d="m95.56,141.74c-2.71-2.74-4.07-6.7-4.07-11.88,0-4.46.73-8.62,2.2-12.46,1.46-3.84,3.76-6.94,6.88-9.29,3.12-2.35,7.01-3.53,11.66-3.53s8.64,1.38,11.38,4.14c2.74,2.76,4.1,6.71,4.1,11.84-.05,4.51-.8,8.68-2.27,12.49-1.46,3.82-3.76,6.9-6.88,9.25-3.12,2.35-7.01,3.53-11.66,3.53s-8.63-1.37-11.34-4.1Zm5.26-44.6c-1.03-1.03-1.55-2.39-1.55-4.07,0-2.06.71-3.79,2.12-5.18,1.42-1.39,3.13-2.09,5.15-2.09,1.82,0,3.25.52,4.28,1.55,1.03,1.03,1.55,2.39,1.55,4.07,0,2.06-.71,3.79-2.12,5.18-1.42,1.39-3.16,2.09-5.22,2.09-1.78,0-3.18-.52-4.21-1.55Zm11.88,33.26c.94-3.72,1.4-7.62,1.4-11.7,0-1.54-.23-2.64-.68-3.31-.46-.67-1.19-1.01-2.2-1.01-2.21,0-3.79,1.81-4.75,5.44-.96,3.62-1.44,7.45-1.44,11.48,0,1.68.23,2.88.68,3.6.46.72,1.19,1.08,2.2,1.08,2.26,0,3.85-1.86,4.79-5.58Zm4.18-33.26c-1.03-1.03-1.55-2.39-1.55-4.07,0-2.06.7-3.79,2.09-5.18s3.12-2.09,5.18-2.09c1.78,0,3.18.52,4.21,1.55,1.03,1.03,1.55,2.39,1.55,4.07,0,2.06-.7,3.79-2.09,5.18-1.39,1.39-3.12,2.09-5.18,2.09-1.78,0-3.18-.52-4.21-1.55Z"/>
    <path class="cls-1" d="m158.52,105.38l-3.96,13.18c-1.1-.34-2.09-.5-2.95-.5-1.78,0-3.24.86-4.39,2.59-1.15,1.73-2.19,4.15-3.1,7.27l-2.3,16.49h-13.39l5.33-38.45h11.52v6.55c1.2-2.45,2.64-4.36,4.32-5.72,1.68-1.37,3.53-2.05,5.54-2.05,1.2,0,2.33.22,3.38.65Z"/>
    <path class="cls-1" d="m183.57,105.63c2.64.7,5.14,1.72,7.49,3.06l-4.61,32.54c-.96,6.72-3,11.64-6.12,14.76-3.12,3.12-7.75,4.68-13.9,4.68-2.45,0-4.88-.37-7.31-1.12-2.42-.75-4.67-1.79-6.73-3.13l4.54-8.64c3.21,1.87,6.26,2.81,9.14,2.81,1.92,0,3.48-.48,4.68-1.44,1.2-.96,1.99-2.76,2.38-5.4l.58-3.96c-2.4,3.12-5.33,4.68-8.78,4.68s-6.28-1.3-8.17-3.89c-1.9-2.59-2.84-6.09-2.84-10.51s.73-8.56,2.2-12.42c1.46-3.86,3.83-7.01,7.09-9.43,3.26-2.42,7.44-3.64,12.53-3.64,2.59,0,5.21.35,7.85,1.04Zm-14.26,13.21c-1.2,3.22-1.8,6.96-1.8,11.23,0,1.68.22,2.84.65,3.49.43.65,1.03.97,1.8.97,1.49,0,3.05-1.27,4.68-3.82l2.3-16.42c-.62-.19-1.34-.29-2.16-.29-2.45,0-4.27,1.61-5.47,4.82Z"/>
    <path class="cls-1" d="m221.12,105.63c2.62.7,5.1,1.72,7.45,3.06l-3.38,23.62c-.1.96-.14,1.61-.14,1.94,0,.67.11,1.2.32,1.58.22.38.61.7,1.19.94l-4.03,8.78c-2.21-.19-4.18-.77-5.9-1.73-1.73-.96-2.93-2.3-3.6-4.03-1.34,1.97-2.84,3.47-4.5,4.5-1.66,1.03-3.61,1.55-5.87,1.55-3.6,0-6.35-1.3-8.24-3.89-1.9-2.59-2.84-6.17-2.84-10.73s.73-8.86,2.2-12.89c1.46-4.03,3.82-7.33,7.06-9.9,3.24-2.57,7.4-3.85,12.49-3.85,2.59,0,5.2.35,7.81,1.04Zm-14.15,13.68c-1.2,3.53-1.8,7.57-1.8,12.13,0,1.73.2,2.92.61,3.56.41.65.97.97,1.69.97,1.49,0,2.98-1.3,4.46-3.89l2.59-17.78c-.72-.19-1.46-.29-2.23-.29-2.35,0-4.13,1.76-5.33,5.29Zm16.96-35.82c1.56,1.68,2.34,3.89,2.34,6.62,0,2.02-.47,3.9-1.4,5.65-.94,1.75-2.28,3.14-4.03,4.18-1.75,1.03-3.78,1.55-6.08,1.55-2.83,0-5.03-.84-6.59-2.52-1.56-1.68-2.34-3.89-2.34-6.62,0-1.97.48-3.83,1.44-5.58.96-1.75,2.32-3.16,4.07-4.21,1.75-1.06,3.76-1.58,6.01-1.58,2.83,0,5.03.84,6.59,2.52Zm-9.76,5.47c-.62.86-.94,1.87-.94,3.02,0,1.82.74,2.74,2.23,2.74,1.01,0,1.82-.43,2.45-1.3.62-.86.94-1.85.94-2.95,0-1.87-.72-2.81-2.16-2.81-1.06,0-1.9.43-2.52,1.3Z"/>
    <path class="cls-1" d="m254.39,105.92c2.38.89,4.4,2.1,6.08,3.64l-5.69,7.13c-2.5-1.73-4.97-2.59-7.42-2.59-1.1,0-1.96.2-2.56.61-.6.41-.9.95-.9,1.62,0,.77.4,1.42,1.19,1.94s2.53,1.34,5.22,2.45c2.74,1.11,4.8,2.52,6.19,4.25,1.39,1.73,2.09,3.96,2.09,6.7s-.66,5.04-1.98,7.2c-1.32,2.16-3.27,3.86-5.83,5.11-2.57,1.25-5.63,1.87-9.18,1.87-3.22,0-6.14-.57-8.78-1.69-2.64-1.13-4.87-2.68-6.7-4.64l6.77-6.84c2.69,2.45,5.5,3.67,8.42,3.67,1.2,0,2.16-.24,2.88-.72.72-.48,1.08-1.15,1.08-2.02,0-.91-.41-1.67-1.22-2.27-.82-.6-2.45-1.4-4.9-2.41-2.88-1.2-5-2.63-6.37-4.28-1.37-1.66-2.05-3.85-2.05-6.59,0-2.54.67-4.85,2.02-6.91,1.34-2.06,3.23-3.67,5.65-4.82,2.42-1.15,5.24-1.73,8.46-1.73,2.64,0,5.15.44,7.52,1.33Z"/>
    <path class="cls-1" d="m295.21,108.11c1.75,2.35,2.63,5.74,2.63,10.15,0,8.11-1.7,14.74-5.11,19.87-3.41,5.14-9.1,7.7-17.06,7.7-5.09,0-10.25-1.15-15.48-3.46l7.2-51.55,13.54-1.44-2.74,19.37c1.15-1.3,2.56-2.32,4.21-3.06,1.66-.74,3.37-1.12,5.15-1.12,3.36,0,5.92,1.18,7.67,3.53Zm-18.18,9.65l-2.45,17.71c.86.38,1.8.58,2.81.58,2.26,0,3.95-1.78,5.08-5.33,1.13-3.55,1.69-7.42,1.69-11.59,0-1.87-.22-3.13-.65-3.78-.43-.65-1.06-.97-1.87-.97-1.58,0-3.12,1.13-4.61,3.38Z"/>
    <path class="cls-1" d="m303.63,141.74c-2.71-2.74-4.07-6.7-4.07-11.88,0-4.46.73-8.62,2.2-12.46,1.46-3.84,3.76-6.94,6.88-9.29,3.12-2.35,7.01-3.53,11.66-3.53s8.64,1.38,11.38,4.14c2.74,2.76,4.1,6.71,4.1,11.84-.05,4.51-.8,8.68-2.27,12.49-1.46,3.82-3.76,6.9-6.88,9.25-3.12,2.35-7.01,3.53-11.66,3.53s-8.63-1.37-11.34-4.1Zm17.14-11.34c.94-3.72,1.4-7.62,1.4-11.7,0-1.54-.23-2.64-.68-3.31-.46-.67-1.19-1.01-2.2-1.01-2.21,0-3.79,1.81-4.75,5.44-.96,3.62-1.44,7.45-1.44,11.48,0,1.68.23,2.88.68,3.6.46.72,1.19,1.08,2.2,1.08,2.26,0,3.85-1.86,4.79-5.58Z"/>
    <path class="cls-1" d="m366.6,105.38l-3.96,13.18c-1.1-.34-2.09-.5-2.95-.5-1.78,0-3.24.86-4.39,2.59-1.15,1.73-2.19,4.15-3.1,7.27l-2.3,16.49h-13.39l5.33-38.45h11.52v6.55c1.2-2.45,2.64-4.36,4.32-5.72,1.68-1.37,3.53-2.05,5.54-2.05,1.2,0,2.33.22,3.38.65Z"/>
    <path class="cls-1" d="m402.02,90.83l-7.49,53.57h-11.88l.07-4.46c-1.34,1.87-2.82,3.32-4.43,4.36-1.61,1.03-3.52,1.55-5.72,1.55-3.5,0-6.17-1.26-7.99-3.78-1.82-2.52-2.74-6.13-2.74-10.84,0-4.37.65-8.59,1.94-12.67s3.25-7.43,5.87-10.04c2.62-2.62,5.75-3.92,9.4-3.92,3.02,0,5.42,1.03,7.2,3.1l2.52-18.22,13.25,1.37Zm-23.62,26.21c-.96,1.83-1.67,4.03-2.12,6.62-.46,2.59-.68,5.07-.68,7.42,0,1.92.2,3.22.61,3.89.41.67.97,1.01,1.69,1.01,1.44,0,3.12-1.54,5.04-4.61l2.16-15.41c-.86-1.1-1.87-1.66-3.02-1.66-1.49,0-2.71.91-3.67,2.74Z"/>
  </g>
  <g>
    <path class="cls-3" d="m149.47,20.63c2.62.7,5.1,1.72,7.45,3.06l-3.38,23.62c-.1.96-.14,1.61-.14,1.94,0,.67.11,1.2.32,1.58.22.38.61.7,1.19.94l-4.03,8.78c-2.21-.19-4.18-.77-5.9-1.73-1.73-.96-2.93-2.3-3.6-4.03-1.34,1.97-2.84,3.47-4.5,4.5-1.66,1.03-3.61,1.55-5.87,1.55-3.6,0-6.35-1.3-8.24-3.89-1.9-2.59-2.84-6.17-2.84-10.73s.73-8.86,2.2-12.89c1.46-4.03,3.82-7.33,7.06-9.9,3.24-2.57,7.4-3.85,12.49-3.85,2.59,0,5.2.35,7.81,1.04Zm-14.15,13.68c-1.2,3.53-1.8,7.57-1.8,12.13,0,1.73.2,2.92.61,3.56.41.65.97.97,1.69.97,1.49,0,2.98-1.3,4.46-3.89l2.59-17.78c-.72-.19-1.46-.29-2.23-.29-2.35,0-4.13,1.76-5.33,5.29Z"/>
    <path class="cls-3" d="m197.75,5.83l-7.49,53.57h-11.88l.07-4.46c-1.34,1.87-2.82,3.32-4.43,4.36-1.61,1.03-3.52,1.55-5.72,1.55-3.5,0-6.17-1.26-7.99-3.78-1.82-2.52-2.74-6.13-2.74-10.84,0-4.37.65-8.59,1.94-12.67,1.3-4.08,3.25-7.43,5.87-10.04,2.62-2.62,5.75-3.92,9.4-3.92,3.02,0,5.42,1.03,7.2,3.1l2.52-18.22,13.25,1.37Zm-23.62,26.21c-.96,1.82-1.67,4.03-2.12,6.62-.46,2.59-.68,5.06-.68,7.42,0,1.92.2,3.22.61,3.89.41.67.97,1.01,1.69,1.01,1.44,0,3.12-1.54,5.04-4.61l2.16-15.41c-.86-1.1-1.87-1.66-3.02-1.66-1.49,0-2.71.91-3.67,2.74Z"/>
    <path class="cls-3" d="m213.87,20.95l-5.33,38.45h-13.39l5.33-38.45h13.39Zm-10.51-7.96c-1.2-1.18-1.8-2.72-1.8-4.64,0-2.4.82-4.39,2.45-5.98,1.63-1.58,3.62-2.38,5.98-2.38,2.06,0,3.7.59,4.9,1.76,1.2,1.18,1.8,2.73,1.8,4.64,0,2.4-.8,4.39-2.41,5.98-1.61,1.58-3.61,2.38-6.01,2.38-2.06,0-3.7-.59-4.9-1.76Z"/>
    <path class="cls-3" d="m228.06,47.95c-.05.19-.07.46-.07.79,0,.86.41,1.3,1.22,1.3.38,0,.79-.07,1.22-.22l1.01,9.5c-1.01.43-2.2.78-3.56,1.04-1.37.26-2.73.4-4.07.4-3.07,0-5.42-.8-7.06-2.41-1.63-1.61-2.45-3.88-2.45-6.8,0-1.1.05-1.94.14-2.52l6.05-43.2,13.46-1.37-5.9,43.49Z"/>
    <path class="cls-3" d="m249.19,5.26c1.03,1.01,1.55,2.35,1.55,4.03,0,1.2-.23,2.36-.68,3.49-.46,1.13-1.28,2.73-2.48,4.79l-5.62,9.72h-6.19l4.32-11.81c-1.49-1.1-2.23-2.66-2.23-4.68s.7-3.64,2.09-5c1.39-1.37,3.1-2.05,5.11-2.05,1.73,0,3.11.5,4.14,1.51Z"/>
    <path class="cls-3" d="m274.03,20.92c2.38.89,4.4,2.1,6.08,3.64l-5.69,7.13c-2.5-1.73-4.97-2.59-7.42-2.59-1.1,0-1.96.2-2.56.61-.6.41-.9.95-.9,1.62,0,.77.4,1.42,1.19,1.94.79.53,2.53,1.34,5.22,2.45,2.74,1.1,4.8,2.52,6.19,4.25,1.39,1.73,2.09,3.96,2.09,6.7s-.66,5.04-1.98,7.2c-1.32,2.16-3.27,3.86-5.83,5.11-2.57,1.25-5.63,1.87-9.18,1.87-3.22,0-6.14-.56-8.78-1.69-2.64-1.13-4.87-2.68-6.7-4.64l6.77-6.84c2.69,2.45,5.5,3.67,8.42,3.67,1.2,0,2.16-.24,2.88-.72.72-.48,1.08-1.15,1.08-2.02,0-.91-.41-1.67-1.22-2.27-.82-.6-2.45-1.4-4.9-2.41-2.88-1.2-5-2.63-6.37-4.28-1.37-1.66-2.05-3.85-2.05-6.59,0-2.54.67-4.85,2.02-6.91,1.34-2.06,3.23-3.67,5.65-4.82,2.42-1.15,5.24-1.73,8.46-1.73,2.64,0,5.15.44,7.52,1.33Z"/>
    <path class="cls-3" d="m28.26,102.92c2.38.89,4.4,2.1,6.08,3.64l-5.69,7.13c-2.5-1.73-4.97-2.59-7.42-2.59-1.1,0-1.96.2-2.56.61-.6.41-.9.95-.9,1.62,0,.77.4,1.42,1.19,1.94s2.53,1.34,5.22,2.45c2.74,1.11,4.8,2.52,6.19,4.25,1.39,1.73,2.09,3.96,2.09,6.7s-.66,5.04-1.98,7.2c-1.32,2.16-3.27,3.86-5.83,5.11-2.57,1.25-5.63,1.87-9.18,1.87-3.22,0-6.14-.57-8.78-1.69-2.64-1.13-4.87-2.68-6.7-4.64l6.77-6.84c2.69,2.45,5.5,3.67,8.42,3.67,1.2,0,2.16-.24,2.88-.72.72-.48,1.08-1.15,1.08-2.02,0-.91-.41-1.67-1.22-2.27-.82-.6-2.45-1.4-4.9-2.41-2.88-1.2-5-2.63-6.37-4.28-1.37-1.66-2.05-3.85-2.05-6.59,0-2.54.67-4.85,2.02-6.91,1.34-2.06,3.23-3.67,5.65-4.82,2.42-1.15,5.24-1.73,8.46-1.73,2.64,0,5.15.44,7.52,1.33Z"/>
    <path class="cls-3" d="m84.85,103.92c1.37,1.56,2.05,3.73,2.05,6.52,0,.82-.07,1.7-.22,2.66l-3.96,28.3h-13.39l3.53-25.27.14-1.44c0-1.06-.29-1.58-.86-1.58s-1.19.54-1.84,1.62-1.43,2.84-2.34,5.29l-3.02,21.38h-13.39l3.53-25.27.14-1.44c0-1.06-.31-1.58-.94-1.58-1.1,0-2.47,2.45-4.1,7.34l-2.95,20.95h-13.39l5.33-38.45h11.66l.07,5.54c1.34-2.16,2.9-3.85,4.68-5.08,1.78-1.22,3.7-1.84,5.76-1.84s3.76.55,5.08,1.66c1.32,1.1,2.17,2.69,2.56,4.75,1.3-1.97,2.82-3.53,4.57-4.68,1.75-1.15,3.61-1.73,5.58-1.73,2.45,0,4.36.78,5.72,2.34Z"/>
    <path class="cls-3" d="m92.55,138.74c-2.71-2.74-4.07-6.7-4.07-11.88,0-4.46.73-8.62,2.2-12.46,1.46-3.84,3.76-6.94,6.88-9.29,3.12-2.35,7.01-3.53,11.66-3.53s8.64,1.38,11.38,4.14c2.74,2.76,4.1,6.71,4.1,11.84-.05,4.51-.8,8.68-2.27,12.49-1.46,3.82-3.76,6.9-6.88,9.25-3.12,2.35-7.01,3.53-11.66,3.53s-8.63-1.37-11.34-4.1Zm5.26-44.6c-1.03-1.03-1.55-2.39-1.55-4.07,0-2.06.71-3.79,2.12-5.18,1.42-1.39,3.13-2.09,5.15-2.09,1.82,0,3.25.52,4.28,1.55,1.03,1.03,1.55,2.39,1.55,4.07,0,2.06-.71,3.79-2.12,5.18-1.42,1.39-3.16,2.09-5.22,2.09-1.78,0-3.18-.52-4.21-1.55Zm11.88,33.26c.94-3.72,1.4-7.62,1.4-11.7,0-1.54-.23-2.64-.68-3.31-.46-.67-1.19-1.01-2.2-1.01-2.21,0-3.79,1.81-4.75,5.44-.96,3.62-1.44,7.45-1.44,11.48,0,1.68.23,2.88.68,3.6.46.72,1.19,1.08,2.2,1.08,2.26,0,3.85-1.86,4.79-5.58Zm4.18-33.26c-1.03-1.03-1.55-2.39-1.55-4.07,0-2.06.7-3.79,2.09-5.18s3.12-2.09,5.18-2.09c1.78,0,3.18.52,4.21,1.55,1.03,1.03,1.55,2.39,1.55,4.07,0,2.06-.7,3.79-2.09,5.18-1.39,1.39-3.12,2.09-5.18,2.09-1.78,0-3.18-.52-4.21-1.55Z"/>
    <path class="cls-3" d="m155.52,102.38l-3.96,13.18c-1.1-.34-2.09-.5-2.95-.5-1.78,0-3.24.86-4.39,2.59-1.15,1.73-2.19,4.15-3.1,7.27l-2.3,16.49h-13.39l5.33-38.45h11.52v6.55c1.2-2.45,2.64-4.36,4.32-5.72,1.68-1.37,3.53-2.05,5.54-2.05,1.2,0,2.33.22,3.38.65Z"/>
    <path class="cls-3" d="m180.57,102.63c2.64.7,5.14,1.72,7.49,3.06l-4.61,32.54c-.96,6.72-3,11.64-6.12,14.76-3.12,3.12-7.75,4.68-13.9,4.68-2.45,0-4.88-.37-7.31-1.12-2.42-.75-4.67-1.79-6.73-3.13l4.54-8.64c3.21,1.87,6.26,2.81,9.14,2.81,1.92,0,3.48-.48,4.68-1.44,1.2-.96,1.99-2.76,2.38-5.4l.58-3.96c-2.4,3.12-5.33,4.68-8.78,4.68s-6.28-1.3-8.17-3.89c-1.9-2.59-2.84-6.09-2.84-10.51s.73-8.56,2.2-12.42c1.46-3.86,3.83-7.01,7.09-9.43,3.26-2.42,7.44-3.64,12.53-3.64,2.59,0,5.21.35,7.85,1.04Zm-14.26,13.21c-1.2,3.22-1.8,6.96-1.8,11.23,0,1.68.22,2.84.65,3.49.43.65,1.03.97,1.8.97,1.49,0,3.05-1.27,4.68-3.82l2.3-16.42c-.62-.19-1.34-.29-2.16-.29-2.45,0-4.27,1.61-5.47,4.82Z"/>
    <path class="cls-3" d="m218.12,102.63c2.62.7,5.1,1.72,7.45,3.06l-3.38,23.62c-.1.96-.14,1.61-.14,1.94,0,.67.11,1.2.32,1.58.22.38.61.7,1.19.94l-4.03,8.78c-2.21-.19-4.18-.77-5.9-1.73-1.73-.96-2.93-2.3-3.6-4.03-1.34,1.97-2.84,3.47-4.5,4.5-1.66,1.03-3.61,1.55-5.87,1.55-3.6,0-6.35-1.3-8.24-3.89-1.9-2.59-2.84-6.17-2.84-10.73s.73-8.86,2.2-12.89c1.46-4.03,3.82-7.33,7.06-9.9,3.24-2.57,7.4-3.85,12.49-3.85,2.59,0,5.2.35,7.81,1.04Zm-14.15,13.68c-1.2,3.53-1.8,7.57-1.8,12.13,0,1.73.2,2.92.61,3.56.41.65.97.97,1.69.97,1.49,0,2.98-1.3,4.46-3.89l2.59-17.78c-.72-.19-1.46-.29-2.23-.29-2.35,0-4.13,1.76-5.33,5.29Zm16.96-35.82c1.56,1.68,2.34,3.89,2.34,6.62,0,2.02-.47,3.9-1.4,5.65-.94,1.75-2.28,3.14-4.03,4.18-1.75,1.03-3.78,1.55-6.08,1.55-2.83,0-5.03-.84-6.59-2.52-1.56-1.68-2.34-3.89-2.34-6.62,0-1.97.48-3.83,1.44-5.58.96-1.75,2.32-3.16,4.07-4.21,1.75-1.06,3.76-1.58,6.01-1.58,2.83,0,5.03.84,6.59,2.52Zm-9.76,5.47c-.62.86-.94,1.87-.94,3.02,0,1.82.74,2.74,2.23,2.74,1.01,0,1.82-.43,2.45-1.3.62-.86.94-1.85.94-2.95,0-1.87-.72-2.81-2.16-2.81-1.06,0-1.9.43-2.52,1.3Z"/>
    <path class="cls-3" d="m251.39,102.92c2.38.89,4.4,2.1,6.08,3.64l-5.69,7.13c-2.5-1.73-4.97-2.59-7.42-2.59-1.1,0-1.96.2-2.56.61-.6.41-.9.95-.9,1.62,0,.77.4,1.42,1.19,1.94s2.53,1.34,5.22,2.45c2.74,1.11,4.8,2.52,6.19,4.25,1.39,1.73,2.09,3.96,2.09,6.7s-.66,5.04-1.98,7.2c-1.32,2.16-3.27,3.86-5.83,5.11-2.57,1.25-5.63,1.87-9.18,1.87-3.22,0-6.14-.57-8.78-1.69-2.64-1.13-4.87-2.68-6.7-4.64l6.77-6.84c2.69,2.45,5.5,3.67,8.42,3.67,1.2,0,2.16-.24,2.88-.72.72-.48,1.08-1.15,1.08-2.02,0-.91-.41-1.67-1.22-2.27-.82-.6-2.45-1.4-4.9-2.41-2.88-1.2-5-2.63-6.37-4.28-1.37-1.66-2.05-3.85-2.05-6.59,0-2.54.67-4.85,2.02-6.91,1.34-2.06,3.23-3.67,5.65-4.82,2.42-1.15,5.24-1.73,8.46-1.73,2.64,0,5.15.44,7.52,1.33Z"/>
    <path class="cls-3" d="m292.21,105.11c1.75,2.35,2.63,5.74,2.63,10.15,0,8.11-1.7,14.74-5.11,19.87-3.41,5.14-9.1,7.7-17.06,7.7-5.09,0-10.25-1.15-15.48-3.46l7.2-51.55,13.54-1.44-2.74,19.37c1.15-1.3,2.56-2.32,4.21-3.06,1.66-.74,3.37-1.12,5.15-1.12,3.36,0,5.92,1.18,7.67,3.53Zm-18.18,9.65l-2.45,17.71c.86.38,1.8.58,2.81.58,2.26,0,3.95-1.78,5.08-5.33,1.13-3.55,1.69-7.42,1.69-11.59,0-1.87-.22-3.13-.65-3.78-.43-.65-1.06-.97-1.87-.97-1.58,0-3.12,1.13-4.61,3.38Z"/>
    <path class="cls-3" d="m300.63,138.74c-2.71-2.74-4.07-6.7-4.07-11.88,0-4.46.73-8.62,2.2-12.46,1.46-3.84,3.76-6.94,6.88-9.29,3.12-2.35,7.01-3.53,11.66-3.53s8.64,1.38,11.38,4.14c2.74,2.76,4.1,6.71,4.1,11.84-.05,4.51-.8,8.68-2.27,12.49-1.46,3.82-3.76,6.9-6.88,9.25-3.12,2.35-7.01,3.53-11.66,3.53s-8.63-1.37-11.34-4.1Zm17.14-11.34c.94-3.72,1.4-7.62,1.4-11.7,0-1.54-.23-2.64-.68-3.31-.46-.67-1.19-1.01-2.2-1.01-2.21,0-3.79,1.81-4.75,5.44-.96,3.62-1.44,7.45-1.44,11.48,0,1.68.23,2.88.68,3.6.46.72,1.19,1.08,2.2,1.08,2.26,0,3.85-1.86,4.79-5.58Z"/>
    <path class="cls-3" d="m363.6,102.38l-3.96,13.18c-1.1-.34-2.09-.5-2.95-.5-1.78,0-3.24.86-4.39,2.59-1.15,1.73-2.19,4.15-3.1,7.27l-2.3,16.49h-13.39l5.33-38.45h11.52v6.55c1.2-2.45,2.64-4.36,4.32-5.72,1.68-1.37,3.53-2.05,5.54-2.05,1.2,0,2.33.22,3.38.65Z"/>
    <path class="cls-3" d="m399.02,87.83l-7.49,53.57h-11.88l.07-4.46c-1.34,1.87-2.82,3.32-4.43,4.36-1.61,1.03-3.52,1.55-5.72,1.55-3.5,0-6.17-1.26-7.99-3.78-1.82-2.52-2.74-6.13-2.74-10.84,0-4.37.65-8.59,1.94-12.67s3.25-7.43,5.87-10.04c2.62-2.62,5.75-3.92,9.4-3.92,3.02,0,5.42,1.03,7.2,3.1l2.52-18.22,13.25,1.37Zm-23.62,26.21c-.96,1.83-1.67,4.03-2.12,6.62-.46,2.59-.68,5.07-.68,7.42,0,1.92.2,3.22.61,3.89.41.67.97,1.01,1.69,1.01,1.44,0,3.12-1.54,5.04-4.61l2.16-15.41c-.86-1.1-1.87-1.66-3.02-1.66-1.49,0-2.71.91-3.67,2.74Z"/>
  </g>
</svg>