<?xml version="1.0" encoding="UTF-8" standalone="no"?>
<!-- Generator: Gravit.io -->
<svg xmlns="http://www.w3.org/2000/svg" xmlns:xlink="http://www.w3.org/1999/xlink" style="isolation:isolate" viewBox="0 0 410 205" width="410pt" height="205pt"><defs><clipPath id="_clipPath_h3hIH7RHOiU5oZY3DPXzIoKpq9sM4vYU"><rect width="410" height="205"/></clipPath></defs><g clip-path="url(#_clipPath_h3hIH7RHOiU5oZY3DPXzIoKpq9sM4vYU)"><g><g><path d=" M 157.965 47.3 C 160.585 48 163.065 49.02 165.415 50.36 L 162.035 73.98 C 161.935 74.94 161.895 75.59 161.895 75.92 C 161.895 76.59 162.005 77.12 162.215 77.5 C 162.435 77.88 162.825 78.2 163.405 78.44 L 159.375 87.22 C 157.165 87.03 155.195 86.45 153.475 85.49 C 151.745 84.53 150.545 83.19 149.875 81.46 C 148.535 83.43 147.035 84.93 145.375 85.96 C 143.715 86.99 141.765 87.51 139.505 87.51 C 135.905 87.51 133.155 86.21 131.265 83.62 C 129.365 81.03 128.425 77.45 128.425 72.89 C 128.425 68.33 129.155 64.03 130.625 60 C 132.085 55.97 134.445 52.67 137.685 50.1 C 140.925 47.53 145.085 46.25 150.175 46.25 C 152.765 46.25 155.375 46.6 157.985 47.29 L 157.965 47.3 Z  M 143.815 60.98 C 142.615 64.51 142.015 68.55 142.015 73.11 C 142.015 74.84 142.215 76.03 142.625 76.67 C 143.035 77.32 143.595 77.64 144.315 77.64 C 145.805 77.64 147.295 76.34 148.775 73.75 L 151.365 55.97 C 150.645 55.78 149.905 55.68 149.135 55.68 C 146.785 55.68 145.005 57.44 143.805 60.97 L 143.815 60.98 Z " fill="rgb(248,150,216)"/><path d=" M 206.245 32.5 L 198.755 86.07 L 186.875 86.07 L 186.945 81.61 C 185.605 83.48 184.125 84.93 182.515 85.97 C 180.905 87 178.995 87.52 176.795 87.52 C 173.295 87.52 170.625 86.26 168.805 83.74 C 166.985 81.22 166.065 77.61 166.065 72.9 C 166.065 68.53 166.715 64.31 168.005 60.23 C 169.305 56.15 171.255 52.8 173.875 50.19 C 176.495 47.57 179.625 46.27 183.275 46.27 C 186.295 46.27 188.695 47.3 190.475 49.37 L 192.995 31.15 L 206.245 32.52 L 206.245 32.5 Z  M 182.625 58.71 C 181.665 60.53 180.955 62.74 180.505 65.33 C 180.045 67.92 179.825 70.39 179.825 72.75 C 179.825 74.67 180.025 75.97 180.435 76.64 C 180.845 77.31 181.405 77.65 182.125 77.65 C 183.565 77.65 185.245 76.11 187.165 73.04 L 189.325 57.63 C 188.465 56.53 187.455 55.97 186.305 55.97 C 184.815 55.97 183.595 56.88 182.635 58.71 L 182.625 58.71 Z " fill="rgb(248,150,216)"/><path d=" M 222.365 47.62 L 217.035 86.07 L 203.645 86.07 L 208.975 47.62 L 222.365 47.62 Z  M 211.855 39.66 C 210.655 38.48 210.055 36.94 210.055 35.02 C 210.055 32.62 210.875 30.63 212.505 29.04 C 214.135 27.46 216.125 26.66 218.485 26.66 C 220.545 26.66 222.185 27.25 223.385 28.42 C 224.585 29.6 225.185 31.15 225.185 33.06 C 225.185 35.46 224.385 37.45 222.775 39.04 C 221.165 40.62 219.165 41.42 216.765 41.42 C 214.705 41.42 213.065 40.83 211.865 39.66 L 211.855 39.66 Z " fill="rgb(248,150,216)"/><path d=" M 236.555 74.62 C 236.505 74.81 236.485 75.08 236.485 75.41 C 236.485 76.27 236.895 76.71 237.705 76.71 C 238.085 76.71 238.495 76.64 238.925 76.49 L 239.935 85.99 C 238.925 86.42 237.735 86.77 236.375 87.03 C 235.005 87.29 233.645 87.43 232.305 87.43 C 229.235 87.43 226.885 86.63 225.245 85.02 C 223.615 83.41 222.795 81.14 222.795 78.22 C 222.795 77.12 222.845 76.28 222.935 75.7 L 228.985 32.5 L 242.445 31.13 L 236.545 74.62 L 236.555 74.62 Z " fill="rgb(248,150,216)"/><path d=" M 257.685 31.93 C 258.715 32.94 259.235 34.28 259.235 35.96 C 259.235 37.16 259.005 38.32 258.555 39.45 C 258.095 40.58 257.275 42.18 256.075 44.24 L 250.455 53.96 L 244.265 53.96 L 248.585 42.15 C 247.095 41.05 246.355 39.49 246.355 37.47 C 246.355 35.45 247.055 33.83 248.445 32.47 C 249.835 31.1 251.545 30.42 253.555 30.42 C 255.285 30.42 256.665 30.92 257.695 31.93 L 257.685 31.93 Z " fill="rgb(248,150,216)"/><path d=" M 282.525 47.59 C 284.905 48.48 286.925 49.69 288.605 51.23 L 282.915 58.36 C 280.415 56.63 277.945 55.77 275.495 55.77 C 274.395 55.77 273.535 55.97 272.935 56.38 C 272.335 56.79 272.035 57.33 272.035 58 C 272.035 58.77 272.435 59.42 273.225 59.94 C 274.015 60.47 275.755 61.28 278.445 62.39 C 281.185 63.49 283.245 64.91 284.635 66.64 C 286.025 68.37 286.725 70.6 286.725 73.34 C 286.725 76.08 286.065 78.38 284.745 80.54 C 283.425 82.7 281.475 84.4 278.915 85.65 C 276.345 86.9 273.285 87.52 269.735 87.52 C 266.515 87.52 263.595 86.96 260.955 85.83 C 258.315 84.7 256.085 83.15 254.255 81.19 L 261.025 74.35 C 263.715 76.8 266.525 78.02 269.445 78.02 C 270.645 78.02 271.605 77.78 272.325 77.3 C 273.045 76.82 273.405 76.15 273.405 75.28 C 273.405 74.37 272.995 73.61 272.185 73.01 C 271.365 72.41 269.735 71.61 267.285 70.6 C 264.405 69.4 262.285 67.97 260.915 66.32 C 259.545 64.66 258.865 62.47 258.865 59.73 C 258.865 57.19 259.535 54.88 260.885 52.82 C 262.225 50.76 264.115 49.15 266.535 48 C 268.955 46.85 271.775 46.27 274.995 46.27 C 277.635 46.27 280.145 46.71 282.515 47.6 L 282.525 47.59 Z " fill="rgb(248,150,216)"/><path d=" M 36.755 129.59 C 39.135 130.48 41.155 131.69 42.835 133.23 L 37.145 140.36 C 34.645 138.63 32.175 137.77 29.725 137.77 C 28.625 137.77 27.765 137.97 27.165 138.38 C 26.565 138.79 26.265 139.33 26.265 140 C 26.265 140.77 26.665 141.42 27.455 141.94 C 28.245 142.46 29.985 143.28 32.675 144.39 C 35.415 145.5 37.475 146.91 38.865 148.64 C 40.255 150.37 40.955 152.6 40.955 155.34 C 40.955 158.08 40.295 160.38 38.975 162.54 C 37.655 164.7 35.705 166.4 33.145 167.65 C 30.575 168.9 27.515 169.52 23.965 169.52 C 20.745 169.52 17.825 168.95 15.185 167.83 C 12.545 166.7 10.315 165.15 8.485 163.19 L 15.255 156.35 C 17.945 158.8 20.755 160.02 23.675 160.02 C 24.875 160.02 25.835 159.78 26.555 159.3 C 27.275 158.82 27.635 158.15 27.635 157.28 C 27.635 156.37 27.225 155.61 26.415 155.01 C 25.595 154.41 23.965 153.61 21.515 152.6 C 18.635 151.4 16.515 149.97 15.145 148.32 C 13.775 146.66 13.095 144.47 13.095 141.73 C 13.095 139.19 13.765 136.88 15.115 134.82 C 16.455 132.76 18.345 131.15 20.765 130 C 23.185 128.85 26.005 128.27 29.225 128.27 C 31.865 128.27 34.375 128.71 36.745 129.6 L 36.755 129.59 Z " fill="rgb(248,150,216)"/><path d=" M 93.345 130.59 C 94.715 132.15 95.395 134.32 95.395 137.11 C 95.395 137.93 95.325 138.81 95.175 139.77 L 91.215 168.07 L 77.825 168.07 L 81.355 142.8 L 81.495 141.36 C 81.495 140.3 81.205 139.78 80.635 139.78 C 80.065 139.78 79.445 140.32 78.795 141.4 C 78.145 142.48 77.365 144.24 76.455 146.69 L 73.435 168.07 L 60.045 168.07 L 63.575 142.8 L 63.715 141.36 C 63.715 140.3 63.405 139.78 62.775 139.78 C 61.675 139.78 60.305 142.23 58.675 147.12 L 55.725 168.07 L 42.335 168.07 L 47.665 129.62 L 59.325 129.62 L 59.395 135.16 C 60.735 133 62.295 131.31 64.075 130.08 C 65.855 128.86 67.775 128.24 69.835 128.24 C 71.895 128.24 73.595 128.79 74.915 129.9 C 76.235 131 77.085 132.59 77.475 134.65 C 78.775 132.68 80.295 131.12 82.045 129.97 C 83.795 128.82 85.655 128.24 87.625 128.24 C 90.075 128.24 91.985 129.02 93.345 130.58 L 93.345 130.59 Z " fill="rgb(248,150,216)"/><path d=" M 101.055 165.41 C 98.345 162.67 96.985 158.71 96.985 153.53 C 96.985 149.07 97.715 144.91 99.185 141.07 C 100.645 137.23 102.945 134.13 106.065 131.78 C 109.185 129.43 113.075 128.25 117.725 128.25 C 122.375 128.25 126.365 129.63 129.105 132.39 C 131.845 135.15 133.205 139.1 133.205 144.23 C 133.155 148.74 132.405 152.91 130.935 156.72 C 129.475 160.54 127.175 163.62 124.055 165.97 C 120.935 168.32 117.045 169.5 112.395 169.5 C 107.745 169.5 103.765 168.13 101.055 165.4 L 101.055 165.41 Z  M 106.315 120.81 C 105.285 119.78 104.765 118.42 104.765 116.74 C 104.765 114.68 105.475 112.95 106.885 111.56 C 108.305 110.17 110.015 109.47 112.035 109.47 C 113.855 109.47 115.285 109.99 116.315 111.02 C 117.345 112.05 117.865 113.41 117.865 115.09 C 117.865 117.15 117.155 118.88 115.745 120.27 C 114.325 121.66 112.585 122.36 110.525 122.36 C 108.745 122.36 107.345 121.84 106.315 120.81 L 106.315 120.81 Z  M 118.195 154.07 C 119.135 150.35 119.595 146.45 119.595 142.37 C 119.595 140.83 119.365 139.73 118.915 139.06 C 118.455 138.39 117.725 138.05 116.715 138.05 C 114.505 138.05 112.925 139.86 111.965 143.49 C 111.005 147.11 110.525 150.94 110.525 154.97 C 110.525 156.65 110.755 157.85 111.205 158.57 C 111.665 159.29 112.395 159.65 113.405 159.65 C 115.665 159.65 117.255 157.79 118.195 154.07 L 118.195 154.07 Z  M 122.375 120.81 C 121.345 119.78 120.825 118.42 120.825 116.74 C 120.825 114.68 121.525 112.95 122.915 111.56 C 124.305 110.17 126.035 109.47 128.095 109.47 C 129.875 109.47 131.275 109.99 132.305 111.02 C 133.335 112.05 133.855 113.41 133.855 115.09 C 133.855 117.15 133.155 118.88 131.765 120.27 C 130.375 121.66 128.645 122.36 126.585 122.36 C 124.805 122.36 123.405 121.84 122.375 120.81 L 122.375 120.81 Z " fill="rgb(248,150,216)"/><path d=" M 164.015 129.05 L 160.055 142.23 C 158.955 141.89 157.965 141.73 157.105 141.73 C 155.325 141.73 153.865 142.59 152.715 144.32 C 151.565 146.05 150.525 148.47 149.615 151.59 L 147.315 168.08 L 133.925 168.08 L 139.255 129.63 L 150.775 129.63 L 150.775 136.18 C 151.975 133.73 153.415 131.82 155.095 130.46 C 156.775 129.09 158.625 128.41 160.635 128.41 C 161.835 128.41 162.965 128.63 164.015 129.06 L 164.015 129.05 Z " fill="rgb(248,150,216)"/><path d=" M 189.065 129.3 C 191.705 130 194.205 131.02 196.555 132.36 L 191.945 164.9 C 190.985 171.62 188.945 176.54 185.825 179.66 C 182.705 182.78 178.075 184.34 171.925 184.34 C 169.475 184.34 167.045 183.97 164.615 183.22 C 162.195 182.47 159.945 181.43 157.885 180.09 L 162.425 171.45 C 165.635 173.32 168.685 174.26 171.565 174.26 C 173.485 174.26 175.045 173.78 176.245 172.82 C 177.445 171.86 178.235 170.06 178.625 167.42 L 179.205 163.46 C 176.805 166.58 173.875 168.14 170.425 168.14 C 166.975 168.14 164.145 166.84 162.255 164.25 C 160.355 161.66 159.415 158.16 159.415 153.74 C 159.415 149.32 160.145 145.18 161.615 141.32 C 163.075 137.46 165.445 134.31 168.705 131.89 C 171.965 129.47 176.145 128.25 181.235 128.25 C 183.825 128.25 186.445 128.6 189.085 129.29 L 189.065 129.3 Z  M 174.805 142.51 C 173.605 145.73 173.005 149.47 173.005 153.74 C 173.005 155.42 173.225 156.58 173.655 157.23 C 174.085 157.88 174.685 158.2 175.455 158.2 C 176.945 158.2 178.505 156.93 180.135 154.38 L 182.435 137.96 C 181.815 137.77 181.095 137.67 180.275 137.67 C 177.825 137.67 176.005 139.28 174.805 142.49 L 174.805 142.51 Z " fill="rgb(248,150,216)"/><path d=" M 226.615 129.3 C 229.235 130 231.715 131.02 234.065 132.36 L 230.685 155.98 C 230.585 156.94 230.545 157.59 230.545 157.92 C 230.545 158.59 230.655 159.12 230.865 159.5 C 231.085 159.88 231.475 160.2 232.055 160.44 L 228.025 169.22 C 225.815 169.03 223.845 168.45 222.125 167.49 C 220.395 166.53 219.195 165.19 218.525 163.46 C 217.185 165.43 215.685 166.93 214.025 167.96 C 212.365 168.99 210.415 169.51 208.155 169.51 C 204.555 169.51 201.805 168.21 199.915 165.62 C 198.015 163.03 197.075 159.45 197.075 154.89 C 197.075 150.33 197.805 146.03 199.275 142 C 200.735 137.97 203.095 134.67 206.335 132.1 C 209.575 129.53 213.735 128.25 218.825 128.25 C 221.415 128.25 224.025 128.6 226.635 129.29 L 226.615 129.3 Z  M 212.465 142.98 C 211.265 146.51 210.665 150.55 210.665 155.11 C 210.665 156.84 210.865 158.03 211.275 158.67 C 211.685 159.32 212.245 159.64 212.965 159.64 C 214.455 159.64 215.945 158.34 217.425 155.75 L 220.015 137.97 C 219.295 137.78 218.555 137.68 217.785 137.68 C 215.435 137.68 213.655 139.44 212.455 142.97 L 212.465 142.98 Z  M 229.425 107.16 C 230.985 108.84 231.765 111.05 231.765 113.78 C 231.765 115.8 231.295 117.68 230.365 119.43 C 229.425 121.18 228.085 122.57 226.335 123.61 C 224.585 124.64 222.555 125.16 220.255 125.16 C 217.425 125.16 215.225 124.32 213.665 122.64 C 212.105 120.96 211.325 118.75 211.325 116.02 C 211.325 114.05 211.805 112.19 212.765 110.44 C 213.725 108.69 215.085 107.28 216.835 106.23 C 218.585 105.17 220.595 104.65 222.845 104.65 C 225.675 104.65 227.875 105.49 229.435 107.17 L 229.425 107.16 Z  M 219.665 112.63 C 219.045 113.49 218.725 114.5 218.725 115.65 C 218.725 117.47 219.465 118.39 220.955 118.39 C 221.965 118.39 222.775 117.96 223.405 117.09 C 224.025 116.23 224.345 115.24 224.345 114.14 C 224.345 112.27 223.625 111.33 222.185 111.33 C 221.125 111.33 220.285 111.76 219.665 112.63 L 219.665 112.63 Z " fill="rgb(248,150,216)"/><path d=" M 259.885 129.59 C 262.265 130.48 264.285 131.69 265.965 133.23 L 260.275 140.36 C 257.775 138.63 255.305 137.77 252.855 137.77 C 251.755 137.77 250.895 137.97 250.295 138.38 C 249.695 138.79 249.395 139.33 249.395 140 C 249.395 140.77 249.795 141.42 250.585 141.94 C 251.375 142.46 253.115 143.28 255.805 144.39 C 258.545 145.5 260.605 146.91 261.995 148.64 C 263.385 150.37 264.085 152.6 264.085 155.34 C 264.085 158.08 263.425 160.38 262.105 162.54 C 260.785 164.7 258.835 166.4 256.275 167.65 C 253.705 168.9 250.645 169.52 247.095 169.52 C 243.875 169.52 240.955 168.95 238.315 167.83 C 235.675 166.7 233.445 165.15 231.615 163.19 L 238.385 156.35 C 241.075 158.8 243.885 160.02 246.805 160.02 C 248.005 160.02 248.965 159.78 249.685 159.3 C 250.405 158.82 250.765 158.15 250.765 157.28 C 250.765 156.37 250.355 155.61 249.545 155.01 C 248.725 154.41 247.095 153.61 244.645 152.6 C 241.765 151.4 239.645 149.97 238.275 148.32 C 236.905 146.66 236.225 144.47 236.225 141.73 C 236.225 139.19 236.895 136.88 238.245 134.82 C 239.585 132.76 241.475 131.15 243.895 130 C 246.315 128.85 249.135 128.27 252.355 128.27 C 254.995 128.27 257.505 128.71 259.875 129.6 L 259.885 129.59 Z " fill="rgb(248,150,216)"/><path d=" M 300.705 131.78 C 302.455 134.13 303.335 137.52 303.335 141.93 C 303.335 150.04 301.635 156.67 298.225 161.8 C 294.815 166.94 289.125 169.5 281.165 169.5 C 276.075 169.5 270.915 168.35 265.685 166.04 L 272.885 114.49 L 286.425 113.05 L 283.685 132.42 C 284.835 131.12 286.245 130.1 287.895 129.36 C 289.555 128.62 291.265 128.24 293.045 128.24 C 296.405 128.24 298.965 129.42 300.715 131.77 L 300.705 131.78 Z  M 282.525 141.43 L 280.075 159.14 C 280.935 159.52 281.875 159.72 282.885 159.72 C 285.145 159.72 286.835 157.94 287.965 154.39 C 289.095 150.84 289.655 146.97 289.655 142.8 C 289.655 140.93 289.435 139.67 289.005 139.02 C 288.575 138.37 287.945 138.05 287.135 138.05 C 285.555 138.05 284.015 139.18 282.525 141.43 L 282.525 141.43 Z " fill="rgb(248,150,216)"/><path d=" M 309.125 165.41 C 306.415 162.67 305.055 158.71 305.055 153.53 C 305.055 149.07 305.785 144.91 307.255 141.07 C 308.715 137.23 311.015 134.13 314.135 131.78 C 317.255 129.43 321.145 128.25 325.795 128.25 C 330.445 128.25 334.435 129.63 337.175 132.39 C 339.915 135.15 341.275 139.1 341.275 144.23 C 341.225 148.74 340.475 152.91 339.005 156.72 C 337.545 160.54 335.245 163.62 332.125 165.97 C 329.005 168.32 325.115 169.5 320.465 169.5 C 315.815 169.5 311.835 168.13 309.125 165.4 L 309.125 165.41 Z  M 326.265 154.07 C 327.205 150.35 327.665 146.45 327.665 142.37 C 327.665 140.83 327.435 139.73 326.985 139.06 C 326.525 138.39 325.795 138.05 324.785 138.05 C 322.575 138.05 320.995 139.86 320.035 143.49 C 319.075 147.11 318.595 150.94 318.595 154.97 C 318.595 156.65 318.825 157.85 319.275 158.57 C 319.735 159.29 320.465 159.65 321.475 159.65 C 323.735 159.65 325.325 157.79 326.265 154.07 L 326.265 154.07 Z " fill="rgb(248,150,216)"/><path d=" M 372.095 129.05 L 368.135 142.23 C 367.035 141.89 366.045 141.73 365.185 141.73 C 363.405 141.73 361.945 142.59 360.795 144.32 C 359.645 146.05 358.605 148.47 357.695 151.59 L 355.395 168.08 L 342.005 168.08 L 347.335 129.63 L 358.855 129.63 L 358.855 136.18 C 360.055 133.73 361.495 131.82 363.175 130.46 C 364.855 129.09 366.705 128.41 368.715 128.41 C 369.915 128.41 371.045 128.63 372.095 129.06 L 372.095 129.05 Z " fill="rgb(248,150,216)"/><path d=" M 407.515 114.5 L 400.025 168.07 L 388.145 168.07 L 388.215 163.61 C 386.875 165.48 385.395 166.93 383.785 167.97 C 382.175 169 380.265 169.52 378.065 169.52 C 374.565 169.52 371.895 168.26 370.075 165.74 C 368.255 163.22 367.335 159.61 367.335 154.9 C 367.335 150.53 367.985 146.31 369.275 142.23 C 370.565 138.15 372.525 134.8 375.145 132.19 C 377.765 129.57 380.895 128.27 384.545 128.27 C 387.565 128.27 389.965 129.3 391.745 131.37 L 394.265 113.15 L 407.515 114.52 L 407.515 114.5 Z  M 383.895 140.71 C 382.935 142.54 382.225 144.74 381.775 147.33 C 381.315 149.92 381.095 152.4 381.095 154.75 C 381.095 156.67 381.295 157.97 381.705 158.64 C 382.115 159.31 382.675 159.65 383.395 159.65 C 384.835 159.65 386.515 158.11 388.435 155.04 L 390.595 139.63 C 389.735 138.53 388.725 137.97 387.575 137.97 C 386.085 137.97 384.865 138.88 383.905 140.71 L 383.895 140.71 Z " fill="rgb(248,150,216)"/></g><g><path d=" M 154.965 44.3 C 157.585 45 160.065 46.02 162.415 47.36 L 159.035 70.98 C 158.935 71.94 158.895 72.59 158.895 72.92 C 158.895 73.59 159.005 74.12 159.215 74.5 C 159.435 74.88 159.825 75.2 160.405 75.44 L 156.375 84.22 C 154.165 84.03 152.195 83.45 150.475 82.49 C 148.745 81.53 147.545 80.19 146.875 78.46 C 145.535 80.43 144.035 81.93 142.375 82.96 C 140.715 83.99 138.765 84.51 136.505 84.51 C 132.905 84.51 130.155 83.21 128.265 80.62 C 126.365 78.03 125.425 74.45 125.425 69.89 C 125.425 65.33 126.155 61.03 127.625 57 C 129.085 52.97 131.445 49.67 134.685 47.1 C 137.925 44.53 142.085 43.25 147.175 43.25 C 149.765 43.25 152.375 43.6 154.985 44.29 L 154.965 44.3 Z  M 140.815 57.98 C 139.615 61.51 139.015 65.55 139.015 70.11 C 139.015 71.84 139.215 73.03 139.625 73.67 C 140.035 74.32 140.595 74.64 141.315 74.64 C 142.805 74.64 144.295 73.34 145.775 70.75 L 148.365 52.97 C 147.645 52.78 146.905 52.68 146.135 52.68 C 143.785 52.68 142.005 54.44 140.805 57.97 L 140.815 57.98 Z " fill="rgb(86,69,146)"/><path d=" M 203.245 29.5 L 195.755 83.07 L 183.875 83.07 L 183.945 78.61 C 182.605 80.48 181.125 81.93 179.515 82.97 C 177.905 84 175.995 84.52 173.795 84.52 C 170.295 84.52 167.625 83.26 165.805 80.74 C 163.985 78.22 163.065 74.61 163.065 69.9 C 163.065 65.53 163.715 61.31 165.005 57.23 C 166.305 53.15 168.255 49.8 170.875 47.19 C 173.495 44.57 176.625 43.27 180.275 43.27 C 183.295 43.27 185.695 44.3 187.475 46.37 L 189.995 28.15 L 203.245 29.52 L 203.245 29.5 Z  M 179.625 55.71 C 178.665 57.53 177.955 59.74 177.505 62.33 C 177.045 64.92 176.825 67.39 176.825 69.75 C 176.825 71.67 177.025 72.97 177.435 73.64 C 177.845 74.31 178.405 74.65 179.125 74.65 C 180.565 74.65 182.245 73.11 184.165 70.04 L 186.325 54.63 C 185.465 53.53 184.455 52.97 183.305 52.97 C 181.815 52.97 180.595 53.88 179.635 55.71 L 179.625 55.71 Z " fill="rgb(86,69,146)"/><path d=" M 219.365 44.62 L 214.035 83.07 L 200.645 83.07 L 205.975 44.62 L 219.365 44.62 Z  M 208.855 36.66 C 207.655 35.48 207.055 33.94 207.055 32.02 C 207.055 29.62 207.875 27.63 209.505 26.04 C 211.135 24.46 213.125 23.66 215.485 23.66 C 217.545 23.66 219.185 24.25 220.385 25.42 C 221.585 26.6 222.185 28.15 222.185 30.06 C 222.185 32.46 221.385 34.45 219.775 36.04 C 218.165 37.62 216.165 38.42 213.765 38.42 C 211.705 38.42 210.065 37.83 208.865 36.66 L 208.855 36.66 Z " fill="rgb(86,69,146)"/><path d=" M 233.555 71.62 C 233.505 71.81 233.485 72.08 233.485 72.41 C 233.485 73.27 233.895 73.71 234.705 73.71 C 235.085 73.71 235.495 73.64 235.925 73.49 L 236.935 82.99 C 235.925 83.42 234.735 83.77 233.375 84.03 C 232.005 84.29 230.645 84.43 229.305 84.43 C 226.235 84.43 223.885 83.63 222.245 82.02 C 220.615 80.41 219.795 78.14 219.795 75.22 C 219.795 74.12 219.845 73.28 219.935 72.7 L 225.985 29.5 L 239.445 28.13 L 233.545 71.62 L 233.555 71.62 Z " fill="rgb(86,69,146)"/><path d=" M 254.685 28.93 C 255.715 29.94 256.235 31.28 256.235 32.96 C 256.235 34.16 256.005 35.32 255.555 36.45 C 255.095 37.58 254.275 39.18 253.075 41.24 L 247.455 50.96 L 241.265 50.96 L 245.585 39.15 C 244.095 38.05 243.355 36.49 243.355 34.47 C 243.355 32.45 244.055 30.83 245.445 29.47 C 246.835 28.1 248.545 27.42 250.555 27.42 C 252.285 27.42 253.665 27.92 254.695 28.93 L 254.685 28.93 Z " fill="rgb(86,69,146)"/><path d=" M 279.525 44.59 C 281.905 45.48 283.925 46.69 285.605 48.23 L 279.915 55.36 C 277.415 53.63 274.945 52.77 272.495 52.77 C 271.395 52.77 270.535 52.97 269.935 53.38 C 269.335 53.79 269.035 54.33 269.035 55 C 269.035 55.77 269.435 56.42 270.225 56.94 C 271.015 57.47 272.755 58.28 275.445 59.39 C 278.185 60.49 280.245 61.91 281.635 63.64 C 283.025 65.37 283.725 67.6 283.725 70.34 C 283.725 73.08 283.065 75.38 281.745 77.54 C 280.425 79.7 278.475 81.4 275.915 82.65 C 273.345 83.9 270.285 84.52 266.735 84.52 C 263.515 84.52 260.595 83.96 257.955 82.83 C 255.315 81.7 253.085 80.15 251.255 78.19 L 258.025 71.35 C 260.715 73.8 263.525 75.02 266.445 75.02 C 267.645 75.02 268.605 74.78 269.325 74.3 C 270.045 73.82 270.405 73.15 270.405 72.28 C 270.405 71.37 269.995 70.61 269.185 70.01 C 268.365 69.41 266.735 68.61 264.285 67.6 C 261.405 66.4 259.285 64.97 257.915 63.32 C 256.545 61.66 255.865 59.47 255.865 56.73 C 255.865 54.19 256.535 51.88 257.885 49.82 C 259.225 47.76 261.115 46.15 263.535 45 C 265.955 43.85 268.775 43.27 271.995 43.27 C 274.635 43.27 277.145 43.71 279.515 44.6 L 279.525 44.59 Z " fill="rgb(86,69,146)"/><path d=" M 33.755 126.59 C 36.135 127.48 38.155 128.69 39.835 130.23 L 34.145 137.36 C 31.645 135.63 29.175 134.77 26.725 134.77 C 25.625 134.77 24.765 134.97 24.165 135.38 C 23.565 135.79 23.265 136.33 23.265 137 C 23.265 137.77 23.665 138.42 24.455 138.94 C 25.245 139.46 26.985 140.28 29.675 141.39 C 32.415 142.5 34.475 143.91 35.865 145.64 C 37.255 147.37 37.955 149.6 37.955 152.34 C 37.955 155.08 37.295 157.38 35.975 159.54 C 34.655 161.7 32.705 163.4 30.145 164.65 C 27.575 165.9 24.515 166.52 20.965 166.52 C 17.745 166.52 14.825 165.95 12.185 164.83 C 9.545 163.7 7.315 162.15 5.485 160.19 L 12.255 153.35 C 14.945 155.8 17.755 157.02 20.675 157.02 C 21.875 157.02 22.835 156.78 23.555 156.3 C 24.275 155.82 24.635 155.15 24.635 154.28 C 24.635 153.37 24.225 152.61 23.415 152.01 C 22.595 151.41 20.965 150.61 18.515 149.6 C 15.635 148.4 13.515 146.97 12.145 145.32 C 10.775 143.66 10.095 141.47 10.095 138.73 C 10.095 136.19 10.765 133.88 12.115 131.82 C 13.455 129.76 15.345 128.15 17.765 127 C 20.185 125.85 23.005 125.27 26.225 125.27 C 28.865 125.27 31.375 125.71 33.745 126.6 L 33.755 126.59 Z " fill="rgb(86,69,146)"/><path d=" M 90.345 127.59 C 91.715 129.15 92.395 131.32 92.395 134.11 C 92.395 134.93 92.325 135.81 92.175 136.77 L 88.215 165.07 L 74.825 165.07 L 78.355 139.8 L 78.495 138.36 C 78.495 137.3 78.205 136.78 77.635 136.78 C 77.065 136.78 76.445 137.32 75.795 138.4 C 75.145 139.48 74.365 141.24 73.455 143.69 L 70.435 165.07 L 57.045 165.07 L 60.575 139.8 L 60.715 138.36 C 60.715 137.3 60.405 136.78 59.775 136.78 C 58.675 136.78 57.305 139.23 55.675 144.12 L 52.725 165.07 L 39.335 165.07 L 44.665 126.62 L 56.325 126.62 L 56.395 132.16 C 57.735 130 59.295 128.31 61.075 127.08 C 62.855 125.86 64.775 125.24 66.835 125.24 C 68.895 125.24 70.595 125.79 71.915 126.9 C 73.235 128 74.085 129.59 74.475 131.65 C 75.775 129.68 77.295 128.12 79.045 126.97 C 80.795 125.82 82.655 125.24 84.625 125.24 C 87.075 125.24 88.985 126.02 90.345 127.58 L 90.345 127.59 Z " fill="rgb(86,69,146)"/><path d=" M 98.055 162.41 C 95.345 159.67 93.985 155.71 93.985 150.53 C 93.985 146.07 94.715 141.91 96.185 138.07 C 97.645 134.23 99.945 131.13 103.065 128.78 C 106.185 126.43 110.075 125.25 114.725 125.25 C 119.375 125.25 123.365 126.63 126.105 129.39 C 128.845 132.15 130.205 136.1 130.205 141.23 C 130.155 145.74 129.405 149.91 127.935 153.72 C 126.475 157.54 124.175 160.62 121.055 162.97 C 117.935 165.32 114.045 166.5 109.395 166.5 C 104.745 166.5 100.765 165.13 98.055 162.4 L 98.055 162.41 Z  M 103.315 117.81 C 102.285 116.78 101.765 115.42 101.765 113.74 C 101.765 111.68 102.475 109.95 103.885 108.56 C 105.305 107.17 107.015 106.47 109.035 106.47 C 110.855 106.47 112.285 106.99 113.315 108.02 C 114.345 109.05 114.865 110.41 114.865 112.09 C 114.865 114.15 114.155 115.88 112.745 117.27 C 111.325 118.66 109.585 119.36 107.525 119.36 C 105.745 119.36 104.345 118.84 103.315 117.81 L 103.315 117.81 Z  M 115.195 151.07 C 116.135 147.35 116.595 143.45 116.595 139.37 C 116.595 137.83 116.365 136.73 115.915 136.06 C 115.455 135.39 114.725 135.05 113.715 135.05 C 111.505 135.05 109.925 136.86 108.965 140.49 C 108.005 144.11 107.525 147.94 107.525 151.97 C 107.525 153.65 107.755 154.85 108.205 155.57 C 108.665 156.29 109.395 156.65 110.405 156.65 C 112.665 156.65 114.255 154.79 115.195 151.07 L 115.195 151.07 Z  M 119.375 117.81 C 118.345 116.78 117.825 115.42 117.825 113.74 C 117.825 111.68 118.525 109.95 119.915 108.56 C 121.305 107.17 123.035 106.47 125.095 106.47 C 126.875 106.47 128.275 106.99 129.305 108.02 C 130.335 109.05 130.855 110.41 130.855 112.09 C 130.855 114.15 130.155 115.88 128.765 117.27 C 127.375 118.66 125.645 119.36 123.585 119.36 C 121.805 119.36 120.405 118.84 119.375 117.81 L 119.375 117.81 Z " fill="rgb(86,69,146)"/><path d=" M 161.015 126.05 L 157.055 139.23 C 155.955 138.89 154.965 138.73 154.105 138.73 C 152.325 138.73 150.865 139.59 149.715 141.32 C 148.565 143.05 147.525 145.47 146.615 148.59 L 144.315 165.08 L 130.925 165.08 L 136.255 126.63 L 147.775 126.63 L 147.775 133.18 C 148.975 130.73 150.415 128.82 152.095 127.46 C 153.775 126.09 155.625 125.41 157.635 125.41 C 158.835 125.41 159.965 125.63 161.015 126.06 L 161.015 126.05 Z " fill="rgb(86,69,146)"/><path d=" M 186.065 126.3 C 188.705 127 191.205 128.02 193.555 129.36 L 188.945 161.9 C 187.985 168.62 185.945 173.54 182.825 176.66 C 179.705 179.78 175.075 181.34 168.925 181.34 C 166.475 181.34 164.045 180.97 161.615 180.22 C 159.195 179.47 156.945 178.43 154.885 177.09 L 159.425 168.45 C 162.635 170.32 165.685 171.26 168.565 171.26 C 170.485 171.26 172.045 170.78 173.245 169.82 C 174.445 168.86 175.235 167.06 175.625 164.42 L 176.205 160.46 C 173.805 163.58 170.875 165.14 167.425 165.14 C 163.975 165.14 161.145 163.84 159.255 161.25 C 157.355 158.66 156.415 155.16 156.415 150.74 C 156.415 146.32 157.145 142.18 158.615 138.32 C 160.075 134.46 162.445 131.31 165.705 128.89 C 168.965 126.47 173.145 125.25 178.235 125.25 C 180.825 125.25 183.445 125.6 186.085 126.29 L 186.065 126.3 Z  M 171.805 139.51 C 170.605 142.73 170.005 146.47 170.005 150.74 C 170.005 152.42 170.225 153.58 170.655 154.23 C 171.085 154.88 171.685 155.2 172.455 155.2 C 173.945 155.2 175.505 153.93 177.135 151.38 L 179.435 134.96 C 178.815 134.77 178.095 134.67 177.275 134.67 C 174.825 134.67 173.005 136.28 171.805 139.49 L 171.805 139.51 Z " fill="rgb(86,69,146)"/><path d=" M 223.615 126.3 C 226.235 127 228.715 128.02 231.065 129.36 L 227.685 152.98 C 227.585 153.94 227.545 154.59 227.545 154.92 C 227.545 155.59 227.655 156.12 227.865 156.5 C 228.085 156.88 228.475 157.2 229.055 157.44 L 225.025 166.22 C 222.815 166.03 220.845 165.45 219.125 164.49 C 217.395 163.53 216.195 162.19 215.525 160.46 C 214.185 162.43 212.685 163.93 211.025 164.96 C 209.365 165.99 207.415 166.51 205.155 166.51 C 201.555 166.51 198.805 165.21 196.915 162.62 C 195.015 160.03 194.075 156.45 194.075 151.89 C 194.075 147.33 194.805 143.03 196.275 139 C 197.735 134.97 200.095 131.67 203.335 129.1 C 206.575 126.53 210.735 125.25 215.825 125.25 C 218.415 125.25 221.025 125.6 223.635 126.29 L 223.615 126.3 Z  M 209.465 139.98 C 208.265 143.51 207.665 147.55 207.665 152.11 C 207.665 153.84 207.865 155.03 208.275 155.67 C 208.685 156.32 209.245 156.64 209.965 156.64 C 211.455 156.64 212.945 155.34 214.425 152.75 L 217.015 134.97 C 216.295 134.78 215.555 134.68 214.785 134.68 C 212.435 134.68 210.655 136.44 209.455 139.97 L 209.465 139.98 Z  M 226.425 104.16 C 227.985 105.84 228.765 108.05 228.765 110.78 C 228.765 112.8 228.295 114.68 227.365 116.43 C 226.425 118.18 225.085 119.57 223.335 120.61 C 221.585 121.64 219.555 122.16 217.255 122.16 C 214.425 122.16 212.225 121.32 210.665 119.64 C 209.105 117.96 208.325 115.75 208.325 113.02 C 208.325 111.05 208.805 109.19 209.765 107.44 C 210.725 105.69 212.085 104.28 213.835 103.23 C 215.585 102.17 217.595 101.65 219.845 101.65 C 222.675 101.65 224.875 102.49 226.435 104.17 L 226.425 104.16 Z  M 216.665 109.63 C 216.045 110.49 215.725 111.5 215.725 112.65 C 215.725 114.47 216.465 115.39 217.955 115.39 C 218.965 115.39 219.775 114.96 220.405 114.09 C 221.025 113.23 221.345 112.24 221.345 111.14 C 221.345 109.27 220.625 108.33 219.185 108.33 C 218.125 108.33 217.285 108.76 216.665 109.63 L 216.665 109.63 Z " fill="rgb(86,69,146)"/><path d=" M 256.885 126.59 C 259.265 127.48 261.285 128.69 262.965 130.23 L 257.275 137.36 C 254.775 135.63 252.305 134.77 249.855 134.77 C 248.755 134.77 247.895 134.97 247.295 135.38 C 246.695 135.79 246.395 136.33 246.395 137 C 246.395 137.77 246.795 138.42 247.585 138.94 C 248.375 139.46 250.115 140.28 252.805 141.39 C 255.545 142.5 257.605 143.91 258.995 145.64 C 260.385 147.37 261.085 149.6 261.085 152.34 C 261.085 155.08 260.425 157.38 259.105 159.54 C 257.785 161.7 255.835 163.4 253.275 164.65 C 250.705 165.9 247.645 166.52 244.095 166.52 C 240.875 166.52 237.955 165.95 235.315 164.83 C 232.675 163.7 230.445 162.15 228.615 160.19 L 235.385 153.35 C 238.075 155.8 240.885 157.02 243.805 157.02 C 245.005 157.02 245.965 156.78 246.685 156.3 C 247.405 155.82 247.765 155.15 247.765 154.28 C 247.765 153.37 247.355 152.61 246.545 152.01 C 245.725 151.41 244.095 150.61 241.645 149.6 C 238.765 148.4 236.645 146.97 235.275 145.32 C 233.905 143.66 233.225 141.47 233.225 138.73 C 233.225 136.19 233.895 133.88 235.245 131.82 C 236.585 129.76 238.475 128.15 240.895 127 C 243.315 125.85 246.135 125.27 249.355 125.27 C 251.995 125.27 254.505 125.71 256.875 126.6 L 256.885 126.59 Z " fill="rgb(86,69,146)"/><path d=" M 297.705 128.78 C 299.455 131.13 300.335 134.52 300.335 138.93 C 300.335 147.04 298.635 153.67 295.225 158.8 C 291.815 163.94 286.125 166.5 278.165 166.5 C 273.075 166.5 267.915 165.35 262.685 163.04 L 269.885 111.49 L 283.425 110.05 L 280.685 129.42 C 281.835 128.12 283.245 127.1 284.895 126.36 C 286.555 125.62 288.265 125.24 290.045 125.24 C 293.405 125.24 295.965 126.42 297.715 128.77 L 297.705 128.78 Z  M 279.525 138.43 L 277.075 156.14 C 277.935 156.52 278.875 156.72 279.885 156.72 C 282.145 156.72 283.835 154.94 284.965 151.39 C 286.095 147.84 286.655 143.97 286.655 139.8 C 286.655 137.93 286.435 136.67 286.005 136.02 C 285.575 135.37 284.945 135.05 284.135 135.05 C 282.555 135.05 281.015 136.18 279.525 138.43 L 279.525 138.43 Z " fill="rgb(86,69,146)"/><path d=" M 306.125 162.41 C 303.415 159.67 302.055 155.71 302.055 150.53 C 302.055 146.07 302.785 141.91 304.255 138.07 C 305.715 134.23 308.015 131.13 311.135 128.78 C 314.255 126.43 318.145 125.25 322.795 125.25 C 327.445 125.25 331.435 126.63 334.175 129.39 C 336.915 132.15 338.275 136.1 338.275 141.23 C 338.225 145.74 337.475 149.91 336.005 153.72 C 334.545 157.54 332.245 160.62 329.125 162.97 C 326.005 165.32 322.115 166.5 317.465 166.5 C 312.815 166.5 308.835 165.13 306.125 162.4 L 306.125 162.41 Z  M 323.265 151.07 C 324.205 147.35 324.665 143.45 324.665 139.37 C 324.665 137.83 324.435 136.73 323.985 136.06 C 323.525 135.39 322.795 135.05 321.785 135.05 C 319.575 135.05 317.995 136.86 317.035 140.49 C 316.075 144.11 315.595 147.94 315.595 151.97 C 315.595 153.65 315.825 154.85 316.275 155.57 C 316.735 156.29 317.465 156.65 318.475 156.65 C 320.735 156.65 322.325 154.79 323.265 151.07 L 323.265 151.07 Z " fill="rgb(86,69,146)"/><path d=" M 369.095 126.05 L 365.135 139.23 C 364.035 138.89 363.045 138.73 362.185 138.73 C 360.405 138.73 358.945 139.59 357.795 141.32 C 356.645 143.05 355.605 145.47 354.695 148.59 L 352.395 165.08 L 339.005 165.08 L 344.335 126.63 L 355.855 126.63 L 355.855 133.18 C 357.055 130.73 358.495 128.82 360.175 127.46 C 361.855 126.09 363.705 125.41 365.715 125.41 C 366.915 125.41 368.045 125.63 369.095 126.06 L 369.095 126.05 Z " fill="rgb(86,69,146)"/><path d=" M 404.515 111.5 L 397.025 165.07 L 385.145 165.07 L 385.215 160.61 C 383.875 162.48 382.395 163.93 380.785 164.97 C 379.175 166 377.265 166.52 375.065 166.52 C 371.565 166.52 368.895 165.26 367.075 162.74 C 365.255 160.22 364.335 156.61 364.335 151.9 C 364.335 147.53 364.985 143.31 366.275 139.23 C 367.565 135.15 369.525 131.8 372.145 129.19 C 374.765 126.57 377.895 125.27 381.545 125.27 C 384.565 125.27 386.965 126.3 388.745 128.37 L 391.265 110.15 L 404.515 111.52 L 404.515 111.5 Z  M 380.895 137.71 C 379.935 139.54 379.225 141.74 378.775 144.33 C 378.315 146.92 378.095 149.4 378.095 151.75 C 378.095 153.67 378.295 154.97 378.705 155.64 C 379.115 156.31 379.675 156.65 380.395 156.65 C 381.835 156.65 383.515 155.11 385.435 152.04 L 387.595 136.63 C 386.735 135.53 385.725 134.97 384.575 134.97 C 383.085 134.97 381.865 135.88 380.905 137.71 L 380.895 137.71 Z " fill="rgb(86,69,146)"/></g><g><path d=" M 151.965 41.3 C 154.585 42 157.065 43.02 159.415 44.36 L 156.035 67.98 C 155.935 68.94 155.895 69.59 155.895 69.92 C 155.895 70.59 156.005 71.12 156.215 71.5 C 156.435 71.88 156.825 72.2 157.405 72.44 L 153.375 81.22 C 151.165 81.03 149.195 80.45 147.475 79.49 C 145.745 78.53 144.545 77.19 143.875 75.46 C 142.535 77.43 141.035 78.93 139.375 79.96 C 137.715 80.99 135.765 81.51 133.505 81.51 C 129.905 81.51 127.155 80.21 125.265 77.62 C 123.365 75.03 122.425 71.45 122.425 66.89 C 122.425 62.33 123.155 58.03 124.625 54 C 126.085 49.97 128.445 46.67 131.685 44.1 C 134.925 41.53 139.085 40.25 144.175 40.25 C 146.765 40.25 149.375 40.6 151.985 41.29 L 151.965 41.3 Z  M 137.815 54.98 C 136.615 58.51 136.015 62.55 136.015 67.11 C 136.015 68.84 136.215 70.03 136.625 70.67 C 137.035 71.32 137.595 71.64 138.315 71.64 C 139.805 71.64 141.295 70.34 142.775 67.75 L 145.365 49.97 C 144.645 49.78 143.905 49.68 143.135 49.68 C 140.785 49.68 139.005 51.44 137.805 54.97 L 137.815 54.98 Z " fill="rgb(237,246,125)"/><path d=" M 200.245 26.5 L 192.755 80.07 L 180.875 80.07 L 180.945 75.61 C 179.605 77.48 178.125 78.93 176.515 79.97 C 174.905 81 172.995 81.52 170.795 81.52 C 167.295 81.52 164.625 80.26 162.805 77.74 C 160.985 75.22 160.065 71.61 160.065 66.9 C 160.065 62.53 160.715 58.31 162.005 54.23 C 163.305 50.15 165.255 46.8 167.875 44.19 C 170.495 41.57 173.625 40.27 177.275 40.27 C 180.295 40.27 182.695 41.3 184.475 43.37 L 186.995 25.15 L 200.245 26.52 L 200.245 26.5 Z  M 176.625 52.71 C 175.665 54.53 174.955 56.74 174.505 59.33 C 174.045 61.92 173.825 64.39 173.825 66.75 C 173.825 68.67 174.025 69.97 174.435 70.64 C 174.845 71.31 175.405 71.65 176.125 71.65 C 177.565 71.65 179.245 70.11 181.165 67.04 L 183.325 51.63 C 182.465 50.53 181.455 49.97 180.305 49.97 C 178.815 49.97 177.595 50.88 176.635 52.71 L 176.625 52.71 Z " fill="rgb(237,246,125)"/><path d=" M 216.365 41.62 L 211.035 80.07 L 197.645 80.07 L 202.975 41.62 L 216.365 41.62 Z  M 205.855 33.66 C 204.655 32.48 204.055 30.94 204.055 29.02 C 204.055 26.62 204.875 24.63 206.505 23.04 C 208.135 21.46 210.125 20.66 212.485 20.66 C 214.545 20.66 216.185 21.25 217.385 22.42 C 218.585 23.6 219.185 25.15 219.185 27.06 C 219.185 29.46 218.385 31.45 216.775 33.04 C 215.165 34.62 213.165 35.42 210.765 35.42 C 208.705 35.42 207.065 34.83 205.865 33.66 L 205.855 33.66 Z " fill="rgb(237,246,125)"/><path d=" M 230.555 68.62 C 230.505 68.81 230.485 69.08 230.485 69.41 C 230.485 70.27 230.895 70.71 231.705 70.71 C 232.085 70.71 232.495 70.64 232.925 70.49 L 233.935 79.99 C 232.925 80.42 231.735 80.77 230.375 81.03 C 229.005 81.29 227.645 81.43 226.305 81.43 C 223.235 81.43 220.885 80.63 219.245 79.02 C 217.615 77.41 216.795 75.14 216.795 72.22 C 216.795 71.12 216.845 70.28 216.935 69.7 L 222.985 26.5 L 236.445 25.13 L 230.545 68.62 L 230.555 68.62 Z " fill="rgb(237,246,125)"/><path d=" M 251.685 25.93 C 252.715 26.94 253.235 28.28 253.235 29.96 C 253.235 31.16 253.005 32.32 252.555 33.45 C 252.095 34.58 251.275 36.18 250.075 38.24 L 244.455 47.96 L 238.265 47.96 L 242.585 36.15 C 241.095 35.05 240.355 33.49 240.355 31.47 C 240.355 29.45 241.055 27.83 242.445 26.47 C 243.835 25.1 245.545 24.42 247.555 24.42 C 249.285 24.42 250.665 24.92 251.695 25.93 L 251.685 25.93 Z " fill="rgb(237,246,125)"/><path d=" M 276.525 41.59 C 278.905 42.48 280.925 43.69 282.605 45.23 L 276.915 52.36 C 274.415 50.63 271.945 49.77 269.495 49.77 C 268.395 49.77 267.535 49.97 266.935 50.38 C 266.335 50.79 266.035 51.33 266.035 52 C 266.035 52.77 266.435 53.42 267.225 53.94 C 268.015 54.47 269.755 55.28 272.445 56.39 C 275.185 57.49 277.245 58.91 278.635 60.64 C 280.025 62.37 280.725 64.6 280.725 67.34 C 280.725 70.08 280.065 72.38 278.745 74.54 C 277.425 76.7 275.475 78.4 272.915 79.65 C 270.345 80.9 267.285 81.52 263.735 81.52 C 260.515 81.52 257.595 80.96 254.955 79.83 C 252.315 78.7 250.085 77.15 248.255 75.19 L 255.025 68.35 C 257.715 70.8 260.525 72.02 263.445 72.02 C 264.645 72.02 265.605 71.78 266.325 71.3 C 267.045 70.82 267.405 70.15 267.405 69.28 C 267.405 68.37 266.995 67.61 266.185 67.01 C 265.365 66.41 263.735 65.61 261.285 64.6 C 258.405 63.4 256.285 61.97 254.915 60.32 C 253.545 58.66 252.865 56.47 252.865 53.73 C 252.865 51.19 253.535 48.88 254.885 46.82 C 256.225 44.76 258.115 43.15 260.535 42 C 262.955 40.85 265.775 40.27 268.995 40.27 C 271.635 40.27 274.145 40.71 276.515 41.6 L 276.525 41.59 Z " fill="rgb(237,246,125)"/><path d=" M 30.755 123.59 C 33.135 124.48 35.155 125.69 36.835 127.23 L 31.145 134.36 C 28.645 132.63 26.175 131.77 23.725 131.77 C 22.625 131.77 21.765 131.97 21.165 132.38 C 20.565 132.79 20.265 133.33 20.265 134 C 20.265 134.77 20.665 135.42 21.455 135.94 C 22.245 136.46 23.985 137.28 26.675 138.39 C 29.415 139.5 31.475 140.91 32.865 142.64 C 34.255 144.37 34.955 146.6 34.955 149.34 C 34.955 152.08 34.295 154.38 32.975 156.54 C 31.655 158.7 29.705 160.4 27.145 161.65 C 24.575 162.9 21.515 163.52 17.965 163.52 C 14.745 163.52 11.825 162.95 9.185 161.83 C 6.545 160.7 4.315 159.15 2.485 157.19 L 9.255 150.35 C 11.945 152.8 14.755 154.02 17.675 154.02 C 18.875 154.02 19.835 153.78 20.555 153.3 C 21.275 152.82 21.635 152.15 21.635 151.28 C 21.635 150.37 21.225 149.61 20.415 149.01 C 19.595 148.41 17.965 147.61 15.515 146.6 C 12.635 145.4 10.515 143.97 9.145 142.32 C 7.775 140.66 7.095 138.47 7.095 135.73 C 7.095 133.19 7.765 130.88 9.115 128.82 C 10.455 126.76 12.345 125.15 14.765 124 C 17.185 122.85 20.005 122.27 23.225 122.27 C 25.865 122.27 28.375 122.71 30.745 123.6 L 30.755 123.59 Z " fill="rgb(237,246,125)"/><path d=" M 87.345 124.59 C 88.715 126.15 89.395 128.32 89.395 131.11 C 89.395 131.93 89.325 132.81 89.175 133.77 L 85.215 162.07 L 71.825 162.07 L 75.355 136.8 L 75.495 135.36 C 75.495 134.3 75.205 133.78 74.635 133.78 C 74.065 133.78 73.445 134.32 72.795 135.4 C 72.145 136.48 71.365 138.24 70.455 140.69 L 67.435 162.07 L 54.045 162.07 L 57.575 136.8 L 57.715 135.36 C 57.715 134.3 57.405 133.78 56.775 133.78 C 55.675 133.78 54.305 136.23 52.675 141.12 L 49.725 162.07 L 36.335 162.07 L 41.665 123.62 L 53.325 123.62 L 53.395 129.16 C 54.735 127 56.295 125.31 58.075 124.08 C 59.855 122.86 61.775 122.24 63.835 122.24 C 65.895 122.24 67.595 122.79 68.915 123.9 C 70.235 125 71.085 126.59 71.475 128.65 C 72.775 126.68 74.295 125.12 76.045 123.97 C 77.795 122.82 79.655 122.24 81.625 122.24 C 84.075 122.24 85.985 123.02 87.345 124.58 L 87.345 124.59 Z " fill="rgb(237,246,125)"/><path d=" M 95.045 159.41 C 92.335 156.67 90.975 152.71 90.975 147.53 C 90.975 143.07 91.705 138.91 93.175 135.07 C 94.635 131.23 96.935 128.13 100.055 125.78 C 103.175 123.43 107.065 122.25 111.715 122.25 C 116.365 122.25 120.355 123.63 123.095 126.39 C 125.835 129.15 127.195 133.1 127.195 138.23 C 127.145 142.74 126.395 146.91 124.925 150.72 C 123.465 154.54 121.165 157.62 118.045 159.97 C 114.925 162.32 111.035 163.5 106.385 163.5 C 101.735 163.5 97.755 162.13 95.045 159.4 L 95.045 159.41 Z  M 100.305 114.81 C 99.275 113.78 98.755 112.42 98.755 110.74 C 98.755 108.68 99.465 106.95 100.875 105.56 C 102.295 104.17 104.005 103.47 106.025 103.47 C 107.845 103.47 109.275 103.99 110.305 105.02 C 111.335 106.05 111.855 107.41 111.855 109.09 C 111.855 111.15 111.145 112.88 109.735 114.27 C 108.315 115.66 106.575 116.36 104.515 116.36 C 102.735 116.36 101.335 115.84 100.305 114.81 L 100.305 114.81 Z  M 112.185 148.07 C 113.125 144.35 113.585 140.45 113.585 136.37 C 113.585 134.83 113.355 133.73 112.905 133.06 C 112.445 132.39 111.715 132.05 110.705 132.05 C 108.495 132.05 106.915 133.86 105.955 137.49 C 104.995 141.11 104.515 144.94 104.515 148.97 C 104.515 150.65 104.745 151.85 105.195 152.57 C 105.655 153.29 106.385 153.65 107.395 153.65 C 109.655 153.65 111.245 151.79 112.185 148.07 L 112.185 148.07 Z  M 116.365 114.81 C 115.335 113.78 114.815 112.42 114.815 110.74 C 114.815 108.68 115.515 106.95 116.905 105.56 C 118.295 104.17 120.025 103.47 122.085 103.47 C 123.865 103.47 125.265 103.99 126.295 105.02 C 127.325 106.05 127.845 107.41 127.845 109.09 C 127.845 111.15 127.145 112.88 125.755 114.27 C 124.365 115.66 122.635 116.36 120.575 116.36 C 118.795 116.36 117.395 115.84 116.365 114.81 L 116.365 114.81 Z " fill="rgb(237,246,125)"/><path d=" M 158.015 123.05 L 154.055 136.23 C 152.955 135.89 151.965 135.73 151.105 135.73 C 149.325 135.73 147.865 136.59 146.715 138.32 C 145.565 140.05 144.525 142.47 143.615 145.59 L 141.315 162.08 L 127.925 162.08 L 133.255 123.63 L 144.775 123.63 L 144.775 130.18 C 145.975 127.73 147.415 125.82 149.095 124.46 C 150.775 123.09 152.625 122.41 154.635 122.41 C 155.835 122.41 156.965 122.63 158.015 123.06 L 158.015 123.05 Z " fill="rgb(237,246,125)"/><path d=" M 183.065 123.3 C 185.705 124 188.205 125.02 190.555 126.36 L 185.945 158.9 C 184.985 165.62 182.945 170.54 179.825 173.66 C 176.705 176.78 172.075 178.34 165.925 178.34 C 163.475 178.34 161.045 177.97 158.615 177.22 C 156.195 176.47 153.945 175.43 151.885 174.09 L 156.425 165.45 C 159.635 167.32 162.685 168.26 165.565 168.26 C 167.485 168.26 169.045 167.78 170.245 166.82 C 171.445 165.86 172.235 164.06 172.625 161.42 L 173.205 157.46 C 170.805 160.58 167.875 162.14 164.425 162.14 C 160.975 162.14 158.145 160.84 156.255 158.25 C 154.355 155.66 153.415 152.16 153.415 147.74 C 153.415 143.32 154.145 139.18 155.615 135.32 C 157.075 131.46 159.445 128.31 162.705 125.89 C 165.965 123.47 170.145 122.25 175.235 122.25 C 177.825 122.25 180.445 122.6 183.085 123.29 L 183.065 123.3 Z  M 168.805 136.51 C 167.605 139.73 167.005 143.47 167.005 147.74 C 167.005 149.42 167.225 150.58 167.655 151.23 C 168.085 151.88 168.685 152.2 169.455 152.2 C 170.945 152.2 172.505 150.93 174.135 148.38 L 176.435 131.96 C 175.815 131.77 175.095 131.67 174.275 131.67 C 171.825 131.67 170.005 133.28 168.805 136.49 L 168.805 136.51 Z " fill="rgb(237,246,125)"/><path d=" M 220.615 123.3 C 223.235 124 225.715 125.02 228.065 126.36 L 224.685 149.98 C 224.585 150.94 224.545 151.59 224.545 151.92 C 224.545 152.59 224.655 153.12 224.865 153.5 C 225.085 153.88 225.475 154.2 226.055 154.44 L 222.025 163.22 C 219.815 163.03 217.845 162.45 216.125 161.49 C 214.395 160.53 213.195 159.19 212.525 157.46 C 211.185 159.43 209.685 160.93 208.025 161.96 C 206.365 162.99 204.415 163.51 202.155 163.51 C 198.555 163.51 195.805 162.21 193.915 159.62 C 192.015 157.03 191.075 153.45 191.075 148.89 C 191.075 144.33 191.805 140.03 193.275 136 C 194.735 131.97 197.095 128.67 200.335 126.1 C 203.575 123.53 207.735 122.25 212.825 122.25 C 215.415 122.25 218.025 122.6 220.635 123.29 L 220.615 123.3 Z  M 206.465 136.98 C 205.265 140.51 204.665 144.55 204.665 149.11 C 204.665 150.84 204.865 152.03 205.275 152.67 C 205.685 153.32 206.245 153.64 206.965 153.64 C 208.455 153.64 209.945 152.34 211.425 149.75 L 214.015 131.97 C 213.295 131.78 212.555 131.68 211.785 131.68 C 209.435 131.68 207.655 133.44 206.455 136.97 L 206.465 136.98 Z  M 223.425 101.16 C 224.985 102.84 225.765 105.05 225.765 107.78 C 225.765 109.8 225.295 111.68 224.365 113.43 C 223.425 115.18 222.085 116.57 220.335 117.61 C 218.585 118.64 216.555 119.16 214.255 119.16 C 211.425 119.16 209.225 118.32 207.665 116.64 C 206.105 114.96 205.325 112.75 205.325 110.02 C 205.325 108.05 205.805 106.19 206.765 104.44 C 207.725 102.69 209.085 101.28 210.835 100.23 C 212.585 99.17 214.595 98.65 216.845 98.65 C 219.675 98.65 221.875 99.49 223.435 101.17 L 223.425 101.16 Z  M 213.665 106.63 C 213.045 107.49 212.725 108.5 212.725 109.65 C 212.725 111.47 213.465 112.39 214.955 112.39 C 215.965 112.39 216.775 111.96 217.405 111.09 C 218.025 110.23 218.345 109.24 218.345 108.14 C 218.345 106.27 217.625 105.33 216.185 105.33 C 215.125 105.33 214.285 105.76 213.665 106.63 L 213.665 106.63 Z " fill="rgb(237,246,125)"/><path d=" M 253.885 123.59 C 256.265 124.48 258.285 125.69 259.965 127.23 L 254.275 134.36 C 251.775 132.63 249.305 131.77 246.855 131.77 C 245.755 131.77 244.895 131.97 244.295 132.38 C 243.695 132.79 243.395 133.33 243.395 134 C 243.395 134.77 243.795 135.42 244.585 135.94 C 245.375 136.46 247.115 137.28 249.805 138.39 C 252.545 139.5 254.605 140.91 255.995 142.64 C 257.385 144.37 258.085 146.6 258.085 149.34 C 258.085 152.08 257.425 154.38 256.105 156.54 C 254.785 158.7 252.835 160.4 250.275 161.65 C 247.705 162.9 244.645 163.52 241.095 163.52 C 237.875 163.52 234.955 162.95 232.315 161.83 C 229.675 160.7 227.445 159.15 225.615 157.19 L 232.385 150.35 C 235.075 152.8 237.885 154.02 240.805 154.02 C 242.005 154.02 242.965 153.78 243.685 153.3 C 244.405 152.82 244.765 152.15 244.765 151.28 C 244.765 150.37 244.355 149.61 243.545 149.01 C 242.725 148.41 241.095 147.61 238.645 146.6 C 235.765 145.4 233.645 143.97 232.275 142.32 C 230.905 140.66 230.225 138.47 230.225 135.73 C 230.225 133.19 230.895 130.88 232.245 128.82 C 233.585 126.76 235.475 125.15 237.895 124 C 240.315 122.85 243.135 122.27 246.355 122.27 C 248.995 122.27 251.505 122.71 253.875 123.6 L 253.885 123.59 Z " fill="rgb(237,246,125)"/><path d=" M 294.705 125.78 C 296.455 128.13 297.335 131.52 297.335 135.93 C 297.335 144.04 295.635 150.67 292.225 155.8 C 288.815 160.94 283.125 163.5 275.165 163.5 C 270.075 163.5 264.915 162.35 259.685 160.04 L 266.885 108.49 L 280.425 107.05 L 277.685 126.42 C 278.835 125.12 280.245 124.1 281.895 123.36 C 283.555 122.62 285.265 122.24 287.045 122.24 C 290.405 122.24 292.965 123.42 294.715 125.77 L 294.705 125.78 Z  M 276.525 135.43 L 274.075 153.14 C 274.935 153.52 275.875 153.72 276.885 153.72 C 279.145 153.72 280.835 151.94 281.965 148.39 C 283.095 144.84 283.655 140.97 283.655 136.8 C 283.655 134.93 283.435 133.67 283.005 133.02 C 282.575 132.37 281.945 132.05 281.135 132.05 C 279.555 132.05 278.015 133.18 276.525 135.43 Z " fill="rgb(237,246,125)"/><path d=" M 303.125 159.41 C 300.415 156.67 299.055 152.71 299.055 147.53 C 299.055 143.07 299.785 138.91 301.255 135.07 C 302.715 131.23 305.015 128.13 308.135 125.78 C 311.255 123.43 315.145 122.25 319.795 122.25 C 324.445 122.25 328.435 123.63 331.175 126.39 C 333.915 129.15 335.275 133.1 335.275 138.23 C 335.225 142.74 334.475 146.91 333.005 150.72 C 331.545 154.54 329.245 157.62 326.125 159.97 C 323.005 162.32 319.115 163.5 314.465 163.5 C 309.815 163.5 305.835 162.13 303.125 159.4 L 303.125 159.41 Z  M 320.265 148.07 C 321.205 144.35 321.665 140.45 321.665 136.37 C 321.665 134.83 321.435 133.73 320.985 133.06 C 320.525 132.39 319.795 132.05 318.785 132.05 C 316.575 132.05 314.995 133.86 314.035 137.49 C 313.075 141.11 312.595 144.94 312.595 148.97 C 312.595 150.65 312.825 151.85 313.275 152.57 C 313.735 153.29 314.465 153.65 315.475 153.65 C 317.735 153.65 319.325 151.79 320.265 148.07 L 320.265 148.07 Z " fill="rgb(237,246,125)"/><path d=" M 366.095 123.05 L 362.135 136.23 C 361.035 135.89 360.045 135.73 359.185 135.73 C 357.405 135.73 355.945 136.59 354.795 138.32 C 353.645 140.05 352.605 142.47 351.695 145.59 L 349.395 162.08 L 336.005 162.08 L 341.335 123.63 L 352.855 123.63 L 352.855 130.18 C 354.055 127.73 355.495 125.82 357.175 124.46 C 358.855 123.09 360.705 122.41 362.715 122.41 C 363.915 122.41 365.045 122.63 366.095 123.06 L 366.095 123.05 Z " fill="rgb(237,246,125)"/><path d=" M 401.515 108.5 L 394.025 162.07 L 382.145 162.07 L 382.215 157.61 C 380.875 159.48 379.395 160.93 377.785 161.97 C 376.175 163 374.265 163.52 372.065 163.52 C 368.565 163.52 365.895 162.26 364.075 159.74 C 362.255 157.22 361.335 153.61 361.335 148.9 C 361.335 144.53 361.985 140.31 363.275 136.23 C 364.565 132.15 366.525 128.8 369.145 126.19 C 371.765 123.57 374.895 122.27 378.545 122.27 C 381.565 122.27 383.965 123.3 385.745 125.37 L 388.265 107.15 L 401.515 108.52 L 401.515 108.5 Z  M 377.895 134.71 C 376.935 136.54 376.225 138.74 375.775 141.33 C 375.315 143.92 375.095 146.4 375.095 148.75 C 375.095 150.67 375.295 151.97 375.705 152.64 C 376.115 153.31 376.675 153.65 377.395 153.65 C 378.835 153.65 380.515 152.11 382.435 149.04 L 384.595 133.63 C 383.735 132.53 382.725 131.97 381.575 131.97 C 380.085 131.97 378.865 132.88 377.905 134.71 L 377.895 134.71 Z " fill="rgb(237,246,125)"/></g></g></g></svg>