<?xml version="1.0" encoding="UTF-8"?>
<svg id="Layer_1" data-name="Layer 1" xmlns="http://www.w3.org/2000/svg" viewBox="0 0 55.75 8.34">
  <defs>
    <style>
      .cls-1 {
        fill: #e5ddcb;
      }

      .cls-2 {
        fill: #ea7b58;
      }

      .cls-3 {
        fill: #cf4647;
      }
    </style>
  </defs>
  <g>
    <path class="cls-3" d="m4.13,3.29l-.34,2.36c0,.09-.01.16-.01.19,0,.07.01.12.04.16.02.04.06.07.12.1l-.35.77c-.21-.02-.39-.08-.54-.17-.15-.09-.26-.23-.31-.4-.14.19-.28.34-.44.44s-.35.15-.56.15c-.35,0-.61-.12-.8-.38-.19-.25-.28-.59-.28-1.03s.07-.85.21-1.24c.14-.39.36-.71.68-.97s.71-.38,1.19-.38.96.13,1.41.38Zm-2.09.99c-.14.36-.2.76-.2,1.22,0,.19.03.33.08.4.05.08.12.12.22.12.16,0,.34-.14.52-.43l.26-1.8c-.09-.03-.18-.04-.27-.04-.27,0-.47.18-.6.54Z"/>
    <path class="cls-3" d="m8.1,1.57l-.73,5.2h-1.04v-.47c-.12.19-.26.34-.42.44s-.35.15-.57.15c-.34,0-.59-.12-.77-.37-.18-.25-.27-.59-.27-1.04,0-.42.06-.82.19-1.21.12-.39.31-.72.56-.98.25-.26.55-.38.91-.38.3,0,.54.11.72.34l.25-1.8,1.16.12Zm-2.28,2.49c-.11.18-.19.41-.23.67-.05.26-.07.51-.07.75,0,.21.02.35.07.43.05.08.12.12.21.12.17,0,.37-.18.58-.54l.21-1.5c-.09-.14-.21-.21-.36-.21-.16,0-.3.09-.41.28Z"/>
    <path class="cls-3" d="m9.66,3.04l-.52,3.72h-1.17l.52-3.72h1.17Zm-.91-.82c-.11-.1-.16-.24-.16-.42,0-.21.07-.39.22-.54.14-.14.32-.21.53-.21.19,0,.33.05.44.16.11.11.16.24.16.42,0,.21-.07.39-.22.54-.15.14-.32.21-.53.21-.19,0-.33-.05-.44-.16Z"/>
    <path class="cls-3" d="m11.02,5.74v.06c0,.1.04.15.13.15.05,0,.09,0,.13-.02l.1.83c-.21.09-.44.14-.69.14-.28,0-.5-.07-.64-.22-.15-.15-.22-.36-.22-.63,0-.08,0-.15.02-.24l.6-4.24,1.18-.12-.59,4.29Z"/>
    <path class="cls-3" d="m12.01,3.89l.15-1.98h1.01l-.41,1.98h-.76Z"/>
    <path class="cls-3" d="m15.44,3.04c.22.09.41.2.57.35l-.5.63c-.24-.18-.49-.27-.73-.27-.13,0-.22.03-.29.08-.07.05-.1.12-.1.2s.04.16.12.21c.08.06.25.14.5.24.28.11.48.25.62.42.14.17.21.38.21.65s-.06.49-.19.69-.31.36-.56.48c-.24.12-.53.17-.86.17-.3,0-.58-.05-.83-.16-.25-.11-.46-.25-.62-.43l.59-.61c.27.24.55.36.84.36.14,0,.26-.03.34-.09.08-.06.12-.15.12-.25s-.04-.19-.12-.25-.24-.15-.49-.25c-.28-.11-.49-.25-.63-.41-.13-.16-.2-.37-.2-.63,0-.24.06-.45.19-.64.12-.19.3-.34.53-.46.23-.11.5-.17.79-.17.25,0,.49.04.71.13Z"/>
    <path class="cls-3" d="m19.83,3.04c.22.09.41.2.57.35l-.5.63c-.24-.18-.49-.27-.73-.27-.13,0-.22.03-.29.08-.07.05-.1.12-.1.2s.04.16.12.21c.08.06.25.14.5.24.28.11.48.25.62.42.14.17.21.38.21.65s-.06.49-.19.69-.31.36-.56.48c-.24.12-.53.17-.86.17-.3,0-.58-.05-.83-.16-.25-.11-.46-.25-.62-.43l.59-.61c.27.24.55.36.84.36.14,0,.26-.03.34-.09.08-.06.12-.15.12-.25s-.04-.19-.12-.25-.24-.15-.49-.25c-.28-.11-.49-.25-.63-.41-.13-.16-.2-.37-.2-.63,0-.24.06-.45.19-.64.12-.19.3-.34.53-.46.23-.11.5-.17.79-.17.25,0,.49.04.71.13Z"/>
    <path class="cls-3" d="m25.31,3.14c.14.15.2.37.2.64,0,.08,0,.17-.02.25l-.39,2.74h-1.17l.34-2.49c0-.08.01-.14.01-.16,0-.13-.04-.2-.13-.2-.07,0-.15.06-.23.19-.08.12-.17.31-.27.55l-.3,2.11h-1.17l.34-2.49c0-.08.01-.14.01-.15,0-.13-.04-.2-.13-.2-.15,0-.32.26-.5.77l-.29,2.08h-1.17l.52-3.72h1.02v.56c.29-.46.63-.69,1.02-.69.21,0,.37.06.5.17.13.11.21.27.24.48.13-.2.28-.36.46-.48.17-.12.36-.17.55-.17.23,0,.42.08.55.23Z"/>
    <path class="cls-3" d="m26.15,6.5c-.25-.26-.38-.64-.38-1.14,0-.42.07-.82.21-1.19s.35-.68.65-.91c.3-.23.67-.35,1.12-.35s.81.13,1.07.4.38.65.38,1.14c0,.42-.08.82-.21,1.19s-.36.67-.65.91c-.3.23-.67.35-1.12.35s-.81-.13-1.07-.4Zm.54-4.34c-.09-.09-.14-.21-.14-.36,0-.19.06-.34.19-.47.13-.12.28-.19.46-.19.16,0,.29.05.38.14.09.09.14.21.14.37,0,.19-.06.34-.19.47s-.28.19-.46.19c-.16,0-.29-.05-.38-.14Zm1.15,3.32c.11-.37.17-.75.17-1.16,0-.19-.03-.33-.08-.41-.06-.08-.15-.12-.27-.12-.25,0-.43.18-.54.55s-.17.75-.17,1.16c0,.19.03.33.09.41.06.08.15.13.26.13.25,0,.43-.18.54-.55Zm.36-3.32c-.09-.09-.14-.21-.14-.36,0-.19.06-.34.19-.47.13-.12.28-.19.46-.19.16,0,.28.05.38.14.09.09.14.21.14.37,0,.19-.06.34-.19.47s-.28.19-.46.19c-.16,0-.28-.05-.38-.14Z"/>
    <path class="cls-3" d="m32.19,2.99l-.35,1.15c-.1-.03-.19-.04-.29-.04-.18,0-.33.09-.45.26-.12.18-.22.42-.32.74l-.24,1.67h-1.17l.52-3.72h1.01v.64c.11-.24.25-.42.41-.56.16-.13.34-.2.54-.2.11,0,.22.02.34.06Z"/>
    <path class="cls-3" d="m35.3,3.29l-.46,3.22c-.09.63-.29,1.1-.58,1.39-.3.29-.73.43-1.29.43-.23,0-.46-.04-.69-.11s-.44-.17-.62-.3l.4-.76c.31.18.61.27.89.27.2,0,.37-.05.49-.15.13-.1.21-.3.25-.58l.06-.4c-.24.31-.53.46-.88.46s-.6-.12-.79-.37c-.18-.25-.28-.58-.28-1.01s.07-.82.21-1.2c.14-.37.37-.68.68-.92s.71-.36,1.19-.36.97.13,1.42.38Zm-2.11.95c-.14.33-.2.71-.2,1.14,0,.19.03.32.08.4.05.08.13.12.22.12.17,0,.35-.14.54-.43l.24-1.67c-.09-.03-.18-.04-.27-.04-.27,0-.47.17-.61.5Z"/>
    <path class="cls-3" d="m38.95,3.29l-.34,2.36c0,.09-.01.16-.01.19,0,.07.01.12.04.16.02.04.06.07.12.1l-.35.77c-.21-.02-.39-.08-.54-.17-.15-.09-.25-.23-.31-.4-.13.19-.28.34-.44.44s-.35.15-.56.15c-.35,0-.61-.12-.8-.38-.19-.25-.28-.59-.28-1.03s.07-.85.21-1.24c.14-.39.37-.71.68-.97s.71-.38,1.19-.38.96.13,1.41.38Zm-2.09.99c-.14.36-.2.76-.2,1.22,0,.19.03.33.08.4.05.08.12.12.22.12.16,0,.34-.14.52-.43l.26-1.8c-.09-.03-.18-.04-.27-.04-.27,0-.47.18-.6.54Zm1.66-3.39c.15.16.22.36.22.61,0,.19-.04.36-.13.52s-.21.29-.38.38c-.16.1-.35.14-.56.14-.26,0-.46-.08-.61-.23s-.22-.36-.22-.61c0-.19.04-.36.13-.52.09-.16.21-.29.37-.38s.34-.14.55-.14c.26,0,.47.08.61.23Zm-.92.48c-.06.09-.09.19-.09.3,0,.19.08.28.22.28.11,0,.19-.04.25-.13s.09-.18.09-.29c0-.19-.07-.29-.22-.29-.11,0-.19.04-.25.13Z"/>
    <path class="cls-3" d="m41.5,3.04c.22.09.41.2.57.35l-.5.63c-.24-.18-.49-.27-.74-.27-.13,0-.22.03-.29.08-.07.05-.11.12-.11.2s.04.16.12.21c.08.06.25.14.5.24.28.11.48.25.62.42.14.17.21.38.21.65s-.06.49-.19.69c-.13.2-.31.36-.56.48-.24.12-.53.17-.86.17-.3,0-.58-.05-.83-.16-.25-.11-.46-.25-.62-.43l.59-.61c.27.24.55.36.84.36.14,0,.26-.03.34-.09.08-.06.12-.15.12-.25s-.04-.19-.12-.25c-.08-.07-.24-.15-.49-.25-.28-.11-.49-.25-.63-.41-.13-.16-.2-.37-.2-.63,0-.24.06-.45.18-.64.12-.19.3-.34.53-.46.23-.11.5-.17.79-.17.25,0,.49.04.71.13Z"/>
    <path class="cls-3" d="m45.41,3.26c.17.23.26.56.26,1,0,.76-.16,1.39-.49,1.89s-.86.75-1.61.75c-.48,0-.96-.1-1.44-.32l.7-5.01,1.18-.13-.26,1.9c.12-.13.26-.23.42-.31.16-.08.33-.12.5-.12.32,0,.57.12.74.35Zm-1.77.89l-.25,1.82c.12.04.23.06.34.06.17,0,.31-.09.42-.27.11-.18.2-.4.25-.67.05-.27.08-.53.08-.79,0-.2-.03-.34-.08-.42s-.13-.12-.23-.12c-.17,0-.35.12-.53.37Z"/>
    <path class="cls-3" d="m46.31,6.5c-.25-.26-.38-.64-.38-1.14,0-.42.07-.82.21-1.19s.35-.68.65-.91c.3-.23.67-.35,1.12-.35s.81.13,1.07.4.38.65.38,1.14c0,.42-.08.82-.21,1.19s-.36.67-.65.91c-.3.23-.67.35-1.12.35s-.81-.13-1.07-.4Zm1.69-1.02c.11-.37.17-.75.17-1.16,0-.19-.03-.33-.08-.41-.06-.08-.15-.12-.27-.12-.25,0-.43.18-.54.55s-.17.75-.17,1.16c0,.19.03.33.09.41.06.08.15.13.26.13.25,0,.43-.18.54-.55Z"/>
    <path class="cls-3" d="m52.35,2.99l-.35,1.15c-.1-.03-.19-.04-.29-.04-.18,0-.33.09-.45.26-.12.18-.22.42-.32.74l-.24,1.67h-1.17l.52-3.72h1.01v.64c.11-.24.25-.42.41-.56.16-.13.34-.2.54-.2.11,0,.22.02.34.06Z"/>
    <path class="cls-3" d="m55.75,1.57l-.73,5.2h-1.04v-.47c-.12.19-.26.34-.42.44-.16.1-.35.15-.57.15-.34,0-.59-.12-.77-.37-.18-.25-.27-.59-.27-1.04,0-.42.06-.82.19-1.21.12-.39.31-.72.56-.98.25-.26.55-.38.91-.38.3,0,.54.11.72.34l.25-1.8,1.15.12Zm-2.28,2.49c-.11.18-.19.41-.23.67s-.07.51-.07.75c0,.21.02.35.07.43.05.08.12.12.21.12.17,0,.37-.18.58-.54l.21-1.5c-.09-.14-.21-.21-.36-.21-.16,0-.3.09-.41.28Z"/>
  </g>
  <g>
    <path class="cls-2" d="m3.8,2.96l-.34,2.36c0,.09-.01.16-.01.19,0,.07.01.12.04.16.02.04.06.07.12.1l-.35.77c-.21-.02-.39-.08-.54-.17-.15-.09-.26-.23-.31-.4-.14.19-.28.34-.44.44s-.35.15-.56.15c-.35,0-.61-.12-.8-.38-.19-.25-.28-.59-.28-1.03s.07-.85.21-1.24c.14-.39.36-.71.68-.97s.71-.38,1.19-.38.96.13,1.41.38Zm-2.09.99c-.14.36-.2.76-.2,1.22,0,.19.03.33.08.4.05.08.12.12.22.12.16,0,.34-.14.52-.43l.26-1.8c-.09-.03-.18-.04-.27-.04-.27,0-.47.18-.6.54Z"/>
    <path class="cls-2" d="m7.77,1.23l-.73,5.2h-1.04v-.47c-.12.19-.26.34-.42.44s-.35.15-.57.15c-.34,0-.59-.12-.77-.37-.18-.25-.27-.59-.27-1.04,0-.42.06-.82.19-1.21.12-.39.31-.72.56-.98.25-.26.55-.38.91-.38.3,0,.54.11.72.34l.25-1.8,1.16.12Zm-2.28,2.49c-.11.18-.19.41-.23.67-.05.26-.07.51-.07.75,0,.21.02.35.07.43.05.08.12.12.21.12.17,0,.37-.18.58-.54l.21-1.5c-.09-.14-.21-.21-.36-.21-.16,0-.3.09-.41.28Z"/>
    <path class="cls-2" d="m9.33,2.71l-.52,3.72h-1.17l.52-3.72h1.17Zm-.91-.82c-.11-.1-.16-.24-.16-.42,0-.21.07-.39.22-.54.14-.14.32-.21.53-.21.19,0,.33.05.44.16.11.11.16.24.16.42,0,.21-.07.39-.22.54-.15.14-.32.21-.53.21-.19,0-.33-.05-.44-.16Z"/>
    <path class="cls-2" d="m10.7,5.4v.06c0,.1.04.15.13.15.05,0,.09,0,.13-.02l.1.83c-.21.09-.44.14-.69.14-.28,0-.5-.07-.64-.22-.15-.15-.22-.36-.22-.63,0-.08,0-.15.02-.24l.6-4.24,1.18-.12-.59,4.29Z"/>
    <path class="cls-2" d="m11.68,3.56l.15-1.98h1.01l-.41,1.98h-.76Z"/>
    <path class="cls-2" d="m15.12,2.71c.22.09.41.2.57.35l-.5.63c-.24-.18-.49-.27-.73-.27-.13,0-.22.03-.29.08-.07.05-.1.12-.1.2s.04.16.12.21c.08.06.25.14.5.24.28.11.48.25.62.42.14.17.21.38.21.65s-.06.49-.19.69-.31.36-.56.48c-.24.12-.53.17-.86.17-.3,0-.58-.05-.83-.16-.25-.11-.46-.25-.62-.43l.59-.61c.27.24.55.36.84.36.14,0,.26-.03.34-.09.08-.06.12-.15.12-.25s-.04-.19-.12-.25-.24-.15-.49-.25c-.28-.11-.49-.25-.63-.41-.13-.16-.2-.37-.2-.63,0-.24.06-.45.19-.64.12-.19.3-.34.53-.46.23-.11.5-.17.79-.17.25,0,.49.04.71.13Z"/>
    <path class="cls-2" d="m19.51,2.71c.22.09.41.2.57.35l-.5.63c-.24-.18-.49-.27-.73-.27-.13,0-.22.03-.29.08-.07.05-.1.12-.1.2s.04.16.12.21c.08.06.25.14.5.24.28.11.48.25.62.42.14.17.21.38.21.65s-.06.49-.19.69-.31.36-.56.48c-.24.12-.53.17-.86.17-.3,0-.58-.05-.83-.16-.25-.11-.46-.25-.62-.43l.59-.61c.27.24.55.36.84.36.14,0,.26-.03.34-.09.08-.06.12-.15.12-.25s-.04-.19-.12-.25-.24-.15-.49-.25c-.28-.11-.49-.25-.63-.41-.13-.16-.2-.37-.2-.63,0-.24.06-.45.19-.64.12-.19.3-.34.53-.46.23-.11.5-.17.79-.17.25,0,.49.04.71.13Z"/>
    <path class="cls-2" d="m24.98,2.81c.14.15.2.37.2.64,0,.08,0,.17-.02.25l-.39,2.74h-1.17l.34-2.49c0-.08.01-.14.01-.16,0-.13-.04-.2-.13-.2-.07,0-.15.06-.23.19-.08.12-.17.31-.27.55l-.3,2.11h-1.17l.34-2.49c0-.08.01-.14.01-.15,0-.13-.04-.2-.13-.2-.15,0-.32.26-.5.77l-.29,2.08h-1.17l.52-3.72h1.02v.56c.29-.46.63-.69,1.02-.69.21,0,.37.06.5.17.13.11.21.27.24.48.13-.2.28-.36.46-.48.17-.12.36-.17.55-.17.23,0,.42.08.55.23Z"/>
    <path class="cls-2" d="m25.82,6.16c-.25-.26-.38-.64-.38-1.14,0-.42.07-.82.21-1.19s.35-.68.65-.91c.3-.23.67-.35,1.12-.35s.81.13,1.07.4.38.65.38,1.14c0,.42-.08.82-.21,1.19s-.36.67-.65.91c-.3.23-.67.35-1.12.35s-.81-.13-1.07-.4Zm.54-4.34c-.09-.09-.14-.21-.14-.36,0-.19.06-.34.19-.47.13-.12.28-.19.46-.19.16,0,.29.05.38.14.09.09.14.21.14.37,0,.19-.06.34-.19.47s-.28.19-.46.19c-.16,0-.29-.05-.38-.14Zm1.15,3.32c.11-.37.17-.75.17-1.16,0-.19-.03-.33-.08-.41-.06-.08-.15-.12-.27-.12-.25,0-.43.18-.54.55s-.17.75-.17,1.16c0,.19.03.33.09.41.06.08.15.13.26.13.25,0,.43-.18.54-.55Zm.36-3.32c-.09-.09-.14-.21-.14-.36,0-.19.06-.34.19-.47.13-.12.28-.19.46-.19.16,0,.28.05.38.14.09.09.14.21.14.37,0,.19-.06.34-.19.47s-.28.19-.46.19c-.16,0-.28-.05-.38-.14Z"/>
    <path class="cls-2" d="m31.86,2.65l-.35,1.15c-.1-.03-.19-.04-.29-.04-.18,0-.33.09-.45.26-.12.18-.22.42-.32.74l-.24,1.67h-1.17l.52-3.72h1.01v.64c.11-.24.25-.42.41-.56.16-.13.34-.2.54-.2.11,0,.22.02.34.06Z"/>
    <path class="cls-2" d="m34.98,2.96l-.46,3.22c-.09.63-.29,1.1-.58,1.39-.3.29-.73.43-1.29.43-.23,0-.46-.04-.69-.11s-.44-.17-.62-.3l.4-.76c.31.18.61.27.89.27.2,0,.37-.05.49-.15.13-.1.21-.3.25-.58l.06-.4c-.24.31-.53.46-.88.46s-.6-.12-.79-.37c-.18-.25-.28-.58-.28-1.01s.07-.82.21-1.2c.14-.37.37-.68.68-.92s.71-.36,1.19-.36.97.13,1.42.38Zm-2.11.95c-.14.33-.2.71-.2,1.14,0,.19.03.32.08.4.05.08.13.12.22.12.17,0,.35-.14.54-.43l.24-1.67c-.09-.03-.18-.04-.27-.04-.27,0-.47.17-.61.5Z"/>
    <path class="cls-2" d="m38.62,2.96l-.34,2.36c0,.09-.01.16-.01.19,0,.07.01.12.04.16.02.04.06.07.12.1l-.35.77c-.21-.02-.39-.08-.54-.17-.15-.09-.25-.23-.31-.4-.13.19-.28.34-.44.44s-.35.15-.56.15c-.35,0-.61-.12-.8-.38-.19-.25-.28-.59-.28-1.03s.07-.85.21-1.24c.14-.39.37-.71.68-.97s.71-.38,1.19-.38.96.13,1.41.38Zm-2.09.99c-.14.36-.2.76-.2,1.22,0,.19.03.33.08.4.05.08.12.12.22.12.16,0,.34-.14.52-.43l.26-1.8c-.09-.03-.18-.04-.27-.04-.27,0-.47.18-.6.54Zm1.66-3.39c.15.16.22.36.22.61,0,.19-.04.36-.13.52s-.21.29-.38.38c-.16.1-.35.14-.56.14-.26,0-.46-.08-.61-.23s-.22-.36-.22-.61c0-.19.04-.36.13-.52.09-.16.21-.29.37-.38s.34-.14.55-.14c.26,0,.47.08.61.23Zm-.92.48c-.06.09-.09.19-.09.3,0,.19.08.28.22.28.11,0,.19-.04.25-.13s.09-.18.09-.29c0-.19-.07-.29-.22-.29-.11,0-.19.04-.25.13Z"/>
    <path class="cls-2" d="m41.17,2.71c.22.09.41.2.57.35l-.5.63c-.24-.18-.49-.27-.74-.27-.13,0-.22.03-.29.08-.07.05-.11.12-.11.2s.04.16.12.21c.08.06.25.14.5.24.28.11.48.25.62.42.14.17.21.38.21.65s-.06.49-.19.69c-.13.2-.31.36-.56.48-.24.12-.53.17-.86.17-.3,0-.58-.05-.83-.16-.25-.11-.46-.25-.62-.43l.59-.61c.27.24.55.36.84.36.14,0,.26-.03.34-.09.08-.06.12-.15.12-.25s-.04-.19-.12-.25c-.08-.07-.24-.15-.49-.25-.28-.11-.49-.25-.63-.41-.13-.16-.2-.37-.2-.63,0-.24.06-.45.18-.64.12-.19.3-.34.53-.46.23-.11.5-.17.79-.17.25,0,.49.04.71.13Z"/>
    <path class="cls-2" d="m45.09,2.92c.17.23.26.56.26,1,0,.76-.16,1.39-.49,1.89s-.86.75-1.61.75c-.48,0-.96-.1-1.44-.32l.7-5.01,1.18-.13-.26,1.9c.12-.13.26-.23.42-.31.16-.08.33-.12.5-.12.32,0,.57.12.74.35Zm-1.77.89l-.25,1.82c.12.04.23.06.34.06.17,0,.31-.09.42-.27.11-.18.2-.4.25-.67.05-.27.08-.53.08-.79,0-.2-.03-.34-.08-.42s-.13-.12-.23-.12c-.17,0-.35.12-.53.37Z"/>
    <path class="cls-2" d="m45.99,6.16c-.25-.26-.38-.64-.38-1.14,0-.42.07-.82.21-1.19s.35-.68.65-.91c.3-.23.67-.35,1.12-.35s.81.13,1.07.4.38.65.38,1.14c0,.42-.08.82-.21,1.19s-.36.67-.65.91c-.3.23-.67.35-1.12.35s-.81-.13-1.07-.4Zm1.69-1.02c.11-.37.17-.75.17-1.16,0-.19-.03-.33-.08-.41-.06-.08-.15-.12-.27-.12-.25,0-.43.18-.54.55s-.17.75-.17,1.16c0,.19.03.33.09.41.06.08.15.13.26.13.25,0,.43-.18.54-.55Z"/>
    <path class="cls-2" d="m52.03,2.65l-.35,1.15c-.1-.03-.19-.04-.29-.04-.18,0-.33.09-.45.26-.12.18-.22.42-.32.74l-.24,1.67h-1.17l.52-3.72h1.01v.64c.11-.24.25-.42.41-.56.16-.13.34-.2.54-.2.11,0,.22.02.34.06Z"/>
    <path class="cls-2" d="m55.42,1.23l-.73,5.2h-1.04v-.47c-.12.19-.26.34-.42.44-.16.1-.35.15-.57.15-.34,0-.59-.12-.77-.37-.18-.25-.27-.59-.27-1.04,0-.42.06-.82.19-1.21.12-.39.31-.72.56-.98.25-.26.55-.38.91-.38.3,0,.54.11.72.34l.25-1.8,1.15.12Zm-2.28,2.49c-.11.18-.19.41-.23.67s-.07.51-.07.75c0,.21.02.35.07.43.05.08.12.12.21.12.17,0,.37-.18.58-.54l.21-1.5c-.09-.14-.21-.21-.36-.21-.16,0-.3.09-.41.28Z"/>
  </g>
  <g>
    <path class="cls-1" d="m3.49,2.63l-.34,2.36c0,.09-.01.16-.01.19,0,.07.01.12.04.16.02.04.06.07.12.1l-.35.77c-.21-.02-.39-.08-.54-.17-.15-.09-.26-.23-.31-.4-.14.19-.28.34-.44.44s-.35.15-.56.15c-.35,0-.61-.12-.8-.38-.19-.25-.28-.59-.28-1.03s.07-.85.21-1.24c.14-.39.36-.71.68-.97s.71-.38,1.19-.38.96.13,1.41.38Zm-2.09.99c-.14.36-.2.76-.2,1.22,0,.19.03.33.08.4.05.08.12.12.22.12.16,0,.34-.14.52-.43l.26-1.8c-.09-.03-.18-.04-.27-.04-.27,0-.47.18-.6.54Z"/>
    <path class="cls-1" d="m7.46.9l-.73,5.2h-1.04v-.47c-.12.19-.26.34-.42.44s-.35.15-.57.15c-.34,0-.59-.12-.77-.37-.18-.25-.27-.59-.27-1.04,0-.42.06-.82.19-1.21.12-.39.31-.72.56-.98.25-.26.55-.38.91-.38.3,0,.54.11.72.34l.25-1.8,1.16.12Zm-2.28,2.49c-.11.18-.19.41-.23.67-.05.26-.07.51-.07.75,0,.21.02.35.07.43.05.08.12.12.21.12.17,0,.37-.18.58-.54l.21-1.5c-.09-.14-.21-.21-.36-.21-.16,0-.3.09-.41.28Z"/>
    <path class="cls-1" d="m9.02,2.38l-.52,3.72h-1.17l.52-3.72h1.17Zm-.91-.82c-.11-.1-.16-.24-.16-.42,0-.21.07-.39.22-.54.14-.14.32-.21.53-.21.19,0,.33.05.44.16.11.11.16.24.16.42,0,.21-.07.39-.22.54-.15.14-.32.21-.53.21-.19,0-.33-.05-.44-.16Z"/>
    <path class="cls-1" d="m10.38,5.08v.06c0,.1.04.15.13.15.05,0,.09,0,.13-.02l.1.83c-.21.09-.44.14-.69.14-.28,0-.5-.07-.64-.22-.15-.15-.22-.36-.22-.63,0-.08,0-.15.02-.24l.6-4.24,1.18-.12-.59,4.29Z"/>
    <path class="cls-1" d="m11.37,3.23l.15-1.98h1.01l-.41,1.98h-.76Z"/>
    <path class="cls-1" d="m14.8,2.38c.22.09.41.2.57.35l-.5.63c-.24-.18-.49-.27-.73-.27-.13,0-.22.03-.29.08-.07.05-.1.12-.1.2s.04.16.12.21c.08.06.25.14.5.24.28.11.48.25.62.42.14.17.21.38.21.65s-.06.49-.19.69-.31.36-.56.48c-.24.12-.53.17-.86.17-.3,0-.58-.05-.83-.16-.25-.11-.46-.25-.62-.43l.59-.61c.27.24.55.36.84.36.14,0,.26-.03.34-.09.08-.06.12-.15.12-.25s-.04-.19-.12-.25-.24-.15-.49-.25c-.28-.11-.49-.25-.63-.41-.13-.16-.2-.37-.2-.63,0-.24.06-.45.19-.64.12-.19.3-.34.53-.46.23-.11.5-.17.79-.17.25,0,.49.04.71.13Z"/>
    <path class="cls-1" d="m19.19,2.38c.22.09.41.2.57.35l-.5.63c-.24-.18-.49-.27-.73-.27-.13,0-.22.03-.29.08-.07.05-.1.12-.1.2s.04.16.12.21c.08.06.25.14.5.24.28.11.48.25.62.42.14.17.21.38.21.65s-.06.49-.19.69-.31.36-.56.48c-.24.12-.53.17-.86.17-.3,0-.58-.05-.83-.16-.25-.11-.46-.25-.62-.43l.59-.61c.27.24.55.36.84.36.14,0,.26-.03.34-.09.08-.06.12-.15.12-.25s-.04-.19-.12-.25-.24-.15-.49-.25c-.28-.11-.49-.25-.63-.41-.13-.16-.2-.37-.2-.63,0-.24.06-.45.19-.64.12-.19.3-.34.53-.46.23-.11.5-.17.79-.17.25,0,.49.04.71.13Z"/>
    <path class="cls-1" d="m24.67,2.48c.14.15.2.37.2.64,0,.08,0,.17-.02.25l-.39,2.74h-1.17l.34-2.49c0-.08.01-.14.01-.16,0-.13-.04-.2-.13-.2-.07,0-.15.06-.23.19-.08.12-.17.31-.27.55l-.3,2.11h-1.17l.34-2.49c0-.08.01-.14.01-.15,0-.13-.04-.2-.13-.2-.15,0-.32.26-.5.77l-.29,2.08h-1.17l.52-3.72h1.02v.56c.29-.46.63-.69,1.02-.69.21,0,.37.06.5.17.13.11.21.27.24.48.13-.2.28-.36.46-.48.17-.12.36-.17.55-.17.23,0,.42.08.55.23Z"/>
    <path class="cls-1" d="m25.51,5.84c-.25-.26-.38-.64-.38-1.14,0-.42.07-.82.21-1.19s.35-.68.65-.91c.3-.23.67-.35,1.12-.35s.81.13,1.07.4.38.65.38,1.14c0,.42-.08.82-.21,1.19s-.36.67-.65.91c-.3.23-.67.35-1.12.35s-.81-.13-1.07-.4Zm.54-4.34c-.09-.09-.14-.21-.14-.36,0-.19.06-.34.19-.47.13-.12.28-.19.46-.19.16,0,.29.05.38.14.09.09.14.21.14.37,0,.19-.06.34-.19.47s-.28.19-.46.19c-.16,0-.29-.05-.38-.14Zm1.15,3.32c.11-.37.17-.75.17-1.16,0-.19-.03-.33-.08-.41-.06-.08-.15-.12-.27-.12-.25,0-.43.18-.54.55s-.17.75-.17,1.16c0,.19.03.33.09.41.06.08.15.13.26.13.25,0,.43-.18.54-.55Zm.36-3.32c-.09-.09-.14-.21-.14-.36,0-.19.06-.34.19-.47.13-.12.28-.19.46-.19.16,0,.28.05.38.14.09.09.14.21.14.37,0,.19-.06.34-.19.47s-.28.19-.46.19c-.16,0-.28-.05-.38-.14Z"/>
    <path class="cls-1" d="m31.55,2.32l-.35,1.15c-.1-.03-.19-.04-.29-.04-.18,0-.33.09-.45.26-.12.18-.22.42-.32.74l-.24,1.67h-1.17l.52-3.72h1.01v.64c.11-.24.25-.42.41-.56.16-.13.34-.2.54-.2.11,0,.22.02.34.06Z"/>
    <path class="cls-1" d="m34.66,2.63l-.46,3.22c-.09.63-.29,1.1-.58,1.39-.3.29-.73.43-1.29.43-.23,0-.46-.04-.69-.11s-.44-.17-.62-.3l.4-.76c.31.18.61.27.89.27.2,0,.37-.05.49-.15.13-.1.21-.3.25-.58l.06-.4c-.24.31-.53.46-.88.46s-.6-.12-.79-.37c-.18-.25-.28-.58-.28-1.01s.07-.82.21-1.2c.14-.37.37-.68.68-.92s.71-.36,1.19-.36.97.13,1.42.38Zm-2.11.95c-.14.33-.2.71-.2,1.14,0,.19.03.32.08.4.05.08.13.12.22.12.17,0,.35-.14.54-.43l.24-1.67c-.09-.03-.18-.04-.27-.04-.27,0-.47.17-.61.5Z"/>
    <path class="cls-1" d="m38.31,2.63l-.34,2.36c0,.09-.01.16-.01.19,0,.07.01.12.04.16.02.04.06.07.12.1l-.35.77c-.21-.02-.39-.08-.54-.17-.15-.09-.25-.23-.31-.4-.13.19-.28.34-.44.44s-.35.15-.56.15c-.35,0-.61-.12-.8-.38-.19-.25-.28-.59-.28-1.03s.07-.85.21-1.24c.14-.39.37-.71.68-.97s.71-.38,1.19-.38.96.13,1.41.38Zm-2.09.99c-.14.36-.2.76-.2,1.22,0,.19.03.33.08.4.05.08.12.12.22.12.16,0,.34-.14.52-.43l.26-1.8c-.09-.03-.18-.04-.27-.04-.27,0-.47.18-.6.54Zm1.66-3.39c.15.16.22.36.22.61,0,.19-.04.36-.13.52s-.21.29-.38.38c-.16.1-.35.14-.56.14-.26,0-.46-.08-.61-.23s-.22-.36-.22-.61c0-.19.04-.36.13-.52.09-.16.21-.29.37-.38s.34-.14.55-.14c.26,0,.47.08.61.23Zm-.92.48c-.06.09-.09.19-.09.3,0,.19.08.28.22.28.11,0,.19-.04.25-.13s.09-.18.09-.29c0-.19-.07-.29-.22-.29-.11,0-.19.04-.25.13Z"/>
    <path class="cls-1" d="m40.86,2.38c.22.09.41.2.57.35l-.5.63c-.24-.18-.49-.27-.74-.27-.13,0-.22.03-.29.08-.07.05-.11.12-.11.2s.04.16.12.21c.08.06.25.14.5.24.28.11.48.25.62.42.14.17.21.38.21.65s-.06.49-.19.69c-.13.2-.31.36-.56.48-.24.12-.53.17-.86.17-.3,0-.58-.05-.83-.16-.25-.11-.46-.25-.62-.43l.59-.61c.27.24.55.36.84.36.14,0,.26-.03.34-.09.08-.06.12-.15.12-.25s-.04-.19-.12-.25c-.08-.07-.24-.15-.49-.25-.28-.11-.49-.25-.63-.41-.13-.16-.2-.37-.2-.63,0-.24.06-.45.18-.64.12-.19.3-.34.53-.46.23-.11.5-.17.79-.17.25,0,.49.04.71.13Z"/>
    <path class="cls-1" d="m44.77,2.59c.17.23.26.56.26,1,0,.76-.16,1.39-.49,1.89s-.86.75-1.61.75c-.48,0-.96-.1-1.44-.32l.7-5.01,1.18-.13-.26,1.9c.12-.13.26-.23.42-.31.16-.08.33-.12.5-.12.32,0,.57.12.74.35Zm-1.77.89l-.25,1.82c.12.04.23.06.34.06.17,0,.31-.09.42-.27.11-.18.2-.4.25-.67.05-.27.08-.53.08-.79,0-.2-.03-.34-.08-.42s-.13-.12-.23-.12c-.17,0-.35.12-.53.37Z"/>
    <path class="cls-1" d="m45.67,5.84c-.25-.26-.38-.64-.38-1.14,0-.42.07-.82.21-1.19s.35-.68.65-.91c.3-.23.67-.35,1.12-.35s.81.13,1.07.4.38.65.38,1.14c0,.42-.08.82-.21,1.19s-.36.67-.65.91c-.3.23-.67.35-1.12.35s-.81-.13-1.07-.4Zm1.69-1.02c.11-.37.17-.75.17-1.16,0-.19-.03-.33-.08-.41-.06-.08-.15-.12-.27-.12-.25,0-.43.18-.54.55s-.17.75-.17,1.16c0,.19.03.33.09.41.06.08.15.13.26.13.25,0,.43-.18.54-.55Z"/>
    <path class="cls-1" d="m51.71,2.32l-.35,1.15c-.1-.03-.19-.04-.29-.04-.18,0-.33.09-.45.26-.12.18-.22.42-.32.74l-.24,1.67h-1.17l.52-3.72h1.01v.64c.11-.24.25-.42.41-.56.16-.13.34-.2.54-.2.11,0,.22.02.34.06Z"/>
    <path class="cls-1" d="m55.11.9l-.73,5.2h-1.04v-.47c-.12.19-.26.34-.42.44-.16.1-.35.15-.57.15-.34,0-.59-.12-.77-.37-.18-.25-.27-.59-.27-1.04,0-.42.06-.82.19-1.21.12-.39.31-.72.56-.98.25-.26.55-.38.91-.38.3,0,.54.11.72.34l.25-1.8,1.15.12Zm-2.28,2.49c-.11.18-.19.41-.23.67s-.07.51-.07.75c0,.21.02.35.07.43.05.08.12.12.21.12.17,0,.37-.18.58-.54l.21-1.5c-.09-.14-.21-.21-.36-.21-.16,0-.3.09-.41.28Z"/>
  </g>
</svg>